<svg xmlns="http://www.w3.org/2000/svg" xmlns:xlink="http://www.w3.org/1999/xlink" width="729px" height="800px" viewBox="0 0 1053.3333333333335 1156.6666666666665">
    <g id="7965819f-bce6-41ac-929b-e68107225e8c">
<rect style="stroke: rgb(193,193,193); stroke-width: 0; stroke-dasharray: none; stroke-linecap: butt; stroke-dashoffset: 0; stroke-linejoin: miter; stroke-miterlimit: 4; fill: rgb(255,255,255); fill-opacity: 0; fill-rule: nonzero; opacity: 0;" x="-526.6666666666667" y="-578.3333333333333" rx="0" ry="0" width="1053.3333333333335" height="1156.6666666666665" transform="matrix(1 0 0 1 526.666667 578.333333)"></rect>
</g>
<g id="bef56c34-dd6b-44e2-90ea-8075cc90f861">
<g style="">
		<g id="bef56c34-dd6b-44e2-90ea-8075cc90f861-child-0">
<path style="stroke: rgb(193,193,193); stroke-width: 0; stroke-dasharray: none; stroke-linecap: butt; stroke-dashoffset: 0; stroke-linejoin: miter; stroke-miterlimit: 4; fill: rgb(2,1,1); fill-rule: nonzero; opacity: 1;" transform="matrix(1.36289 0 0 1.36289 526.666674 526.666677) matrix(1 0 0 1 -1.008699 35.169029)  translate(-429.4913, -644.169029)" d="M 460.50 1042.97 C 447.75 1044.16 409.63 1044.12 396.50 1042.89 C 305.32 1034.37 216.46 984.81 159.33 910.61 C 119.84 859.33 96.88 804.10 87.34 737.50 C 85.77 726.57 85.59 708.76 85.26 538.50 C 84.94 369.18 85.06 350.57 86.53 341.62 C 94.60 292.80 130.21 256.37 179.73 246.29 C 188.01 244.60 202.00 244.50 429.00 244.50 C 654.87 244.50 670.06 244.61 678.68 246.27 C 690.00 248.45 701.08 252.01 709.27 256.11 C 743.73 273.33 767.04 305.14 772.95 343.00 C 773.83 348.60 774.03 398.82 773.75 541.00 C 773.42 713.60 773.23 732.60 771.69 743.18 C 765.70 784.48 756.03 816.00 738.48 851.50 C 719.27 890.34 695.42 922.22 662.79 952.70 C 607.78 1004.08 536.62 1035.84 460.50 1042.97 Z M 401.00 1033.28 C 413.88 1034.33 452.64 1033.85 465.00 1032.49 C 532.32 1025.08 595.56 997.72 646.50 953.96 C 658.57 943.60 681.74 919.72 691.11 908.00 C 731.36 857.64 755.62 798.29 762.52 733.26 C 763.74 721.71 763.98 689.67 763.99 534.16 C 764.00 350.69 763.98 348.71 761.93 338.66 C 755.32 306.22 733.28 278.16 703.64 264.47 C 699.60 262.60 692.30 259.82 687.40 258.29 L 678.50 255.50 L 433.00 255.24 C 209.81 255.00 186.77 255.12 179.50 256.60 C 140.13 264.58 109.14 293.91 98.25 333.50 L 95.50 343.50 L 95.20 524.00 C 94.89 706.54 95.11 721.17 98.54 744.21 C 120.62 892.43 237.40 1009.98 383.49 1031.04 C 390.64 1032.07 398.52 1033.08 401.00 1033.28 Z M 453.70 1015.95 C 379.19 1022.06 304.02 999.86 241.68 953.34 C 174.16 902.95 128.97 826.96 115.98 741.96 C 112.06 716.35 111.59 682.82 112.68 506.00 C 113.80 322.48 113.01 338.95 121.50 321.50 C 123.91 316.55 128.30 309.35 131.25 305.50 C 141.82 291.70 160.56 279.42 178.25 274.70 L 186.50 272.50 L 672.50 272.50 L 680.91 274.74 C 715.52 283.97 741.45 313.26 746.00 348.27 C 747.32 358.44 747.30 704.54 745.97 722.00 C 740.53 793.78 712.86 858.77 665.29 911.51 C 610.04 972.76 536.25 1009.18 453.70 1015.95 Z M 399.50 1004.92 C 411.27 1006.12 447.21 1006.16 459.14 1004.97 C 536.90 997.28 606.64 961.52 659.60 902.22 C 696.37 861.04 722.18 807.68 731.52 753.50 C 733.84 740.09 735.98 718.66 735.99 708.75 L 736.00 700.00 L 429.56 700.00 C 261.02 700.00 122.90 700.35 122.63 700.79 C 121.87 702.02 123.80 727.89 125.54 739.79 C 133.71 795.63 158.27 851.24 193.43 893.50 C 246.49 957.26 319.49 996.73 399.50 1004.92 Z M 123.01 425.36 C 123.00 485.62 123.26 501.12 124.25 500.75 C 124.94 500.50 140.12 495.45 158.00 489.52 C 175.88 483.60 190.92 478.37 191.43 477.90 C 191.98 477.39 191.73 476.34 190.78 475.27 C 185.12 468.91 177.95 452.41 175.43 439.93 C 173.38 429.84 173.94 408.79 176.49 399.50 C 181.09 382.79 193.62 363.24 206.10 353.33 C 224.27 338.88 241.27 332.99 264.82 333.01 C 290.96 333.02 312.66 342.23 330.10 360.72 C 350.06 381.88 358.11 409.42 353.36 440.28 L 352.78 444.05 L 360.14 440.68 C 377.27 432.82 480.35 385.34 501.42 375.60 C 514.03 369.77 525.30 365.00 526.48 365.00 C 527.92 365.00 549.21 384.07 591.79 423.51 L 654.97 482.01 L 736.50 435.46 L 736.50 392.48 C 736.50 351.13 736.41 349.18 734.26 341.00 C 728.13 317.82 713.55 299.97 692.50 289.88 C 690.21 288.78 688.70 287.85 687.12 287.05 C 677.99 282.45 666.54 282.45 490.05 282.49 C 471.71 282.50 451.59 282.50 429.50 282.50 C 198.15 282.50 187.22 282.58 181.06 284.33 C 158.48 290.73 141.12 304.87 130.92 325.16 C 129.39 328.21 128.15 330.63 127.15 333.14 C 123.01 343.56 123.01 355.62 123.01 421.74 Z M 123.00 558.41 L 123.00 690.00 L 126.26 690.00 C 129.31 690.00 130.15 689.10 139.51 675.88 C 145.00 668.11 149.65 661.36 149.83 660.88 C 150.02 660.39 147.23 660.00 143.64 660.00 C 140.05 660.00 136.84 659.55 136.51 659.01 C 136.17 658.47 139.93 652.05 144.87 644.76 L 153.85 631.50 L 148.92 631.20 C 146.22 631.03 144.00 630.47 144.00 629.94 C 144.00 629.42 147.59 622.80 151.98 615.25 L 159.95 601.50 L 156.23 601.18 C 154.18 601.01 152.09 600.47 151.60 599.98 C 150.51 598.91 166.02 572.84 167.47 573.32 C 168.94 573.81 182.93 597.21 182.97 599.25 C 182.99 600.63 182.16 601.00 179.00 601.00 C 174.56 601.00 174.26 601.49 176.63 604.89 C 177.53 606.17 179.50 609.53 181.01 612.36 C 182.52 615.19 185.36 620.17 187.33 623.43 C 189.29 626.69 190.67 629.72 190.39 630.18 C 190.11 630.63 187.88 631.00 185.44 631.00 C 183.00 631.00 181.00 631.25 181.00 631.55 C 181.00 631.85 184.82 637.77 189.50 644.70 C 194.18 651.64 198.00 657.90 198.00 658.61 C 198.00 659.53 195.95 660.00 191.09 660.21 L 184.17 660.50 L 190.34 669.23 C 193.73 674.03 196.73 677.96 197.00 677.97 C 197.27 677.97 202.81 670.44 209.29 661.23 L 221.08 644.50 L 210.04 644.22 C 202.19 644.02 199.00 643.58 199.00 642.72 C 199.01 642.05 205.11 632.50 212.56 621.50 L 226.11 601.50 L 218.06 601.21 C 213.63 601.05 210.00 600.59 210.00 600.20 C 210.00 599.80 213.15 594.09 217.00 587.50 C 220.85 580.91 224.00 574.99 224.00 574.34 C 224.00 573.69 225.04 571.88 226.31 570.33 C 228.68 567.44 235.00 557.36 235.00 556.48 C 235.00 556.22 231.85 556.00 228.00 556.00 C 223.17 556.00 221.00 555.62 221.00 554.78 C 221.00 552.88 243.34 516.00 244.49 516.00 C 245.06 516.00 248.39 520.84 251.91 526.75 C 255.43 532.66 260.76 541.26 263.75 545.85 C 266.75 550.44 268.82 554.58 268.35 555.05 C 267.88 555.52 264.46 556.03 260.75 556.20 L 254.01 556.50 L 266.49 578.00 C 273.36 589.83 278.98 599.84 278.99 600.25 C 278.99 600.66 275.88 601.00 272.06 601.00 C 268.24 601.00 264.85 601.43 264.53 601.95 C 264.21 602.47 269.65 611.34 276.62 621.66 C 283.59 631.97 289.50 641.20 289.75 642.17 C 290.17 643.76 289.15 643.96 279.10 644.22 L 267.99 644.50 L 279.25 660.42 C 285.44 669.18 290.95 676.48 291.50 676.64 C 292.05 676.81 295.93 672.12 300.13 666.22 L 307.76 655.50 L 299.63 655.00 C 292.88 654.59 291.52 654.22 291.62 652.85 C 291.69 651.95 296.08 644.90 301.37 637.19 C 306.67 629.48 311.00 622.90 311.00 622.58 C 311.00 622.26 308.52 622.00 305.50 622.00 C 301.66 622.00 300.00 621.61 300.00 620.70 C 300.00 619.99 304.22 612.14 309.38 603.26 L 309.58 602.91 C 315.83 592.15 318.11 588.24 317.04 586.81 C 316.43 586.00 314.74 586.00 312.07 586.00 L 311.92 586.00 C 309.76 586.00 308.00 585.65 308.00 585.23 C 308.00 583.82 325.48 555.63 326.57 555.29 C 327.61 554.96 345.00 582.96 345.00 584.97 C 345.00 585.54 343.31 586.01 341.25 586.02 C 334.40 586.04 334.44 586.63 342.15 600.06 C 346.08 606.90 350.40 613.96 351.76 615.74 C 355.24 620.32 354.24 621.84 347.52 622.20 L 341.93 622.50 L 351.96 637.16 C 357.48 645.23 362.00 652.52 362.00 653.37 C 362.00 654.62 360.42 654.98 353.93 655.21 L 345.86 655.50 L 353.18 665.93 C 357.21 671.66 360.99 676.51 361.59 676.71 C 362.58 677.03 369.91 662.25 398.63 602.00 C 403.75 591.28 409.18 580.03 410.71 577.00 L 413.50 571.50 L 428.50 572.00 C 451.99 572.78 513.81 572.59 531.78 571.67 L 548.07 570.84 L 555.14 585.64 C 561.72 599.44 562.30 600.31 563.66 598.47 C 565.59 595.84 588.00 557.26 588.00 556.55 C 588.00 556.25 585.10 556.00 581.56 556.00 C 578.02 556.00 574.84 555.55 574.49 554.99 C 573.80 553.86 595.88 516.86 597.58 516.30 C 598.80 515.90 621.00 551.99 621.00 554.37 C 621.00 555.58 619.52 555.98 614.09 556.21 L 607.17 556.50 L 619.59 577.84 C 626.41 589.57 632.00 599.58 632.00 600.09 C 632.00 600.59 628.62 601.00 624.50 601.00 C 620.38 601.00 617.00 601.34 617.00 601.75 C 617.00 602.16 623.04 611.49 630.42 622.48 C 637.80 633.46 643.62 642.80 643.36 643.23 C 643.10 643.65 638.14 644.00 632.33 644.00 C 623.17 644.00 621.86 644.21 622.39 645.57 C 623.74 649.10 647.28 681.11 647.96 680.34 C 648.37 679.88 652.55 674.03 657.25 667.34 C 657.57 666.89 657.88 666.45 658.18 666.03 C 662.83 659.43 664.92 656.46 664.16 655.12 C 663.53 654.02 660.99 654.02 656.37 654.02 C 656.01 654.01 655.64 654.01 655.25 654.01 C 651.41 654.01 649.00 653.58 649.00 652.91 C 649.00 652.31 653.75 644.88 659.55 636.41 L 670.09 621.00 L 664.61 621.00 C 661.59 621.00 658.83 620.54 658.48 619.97 C 658.13 619.41 662.16 611.50 667.42 602.40 C 672.69 593.30 677.00 585.66 677.00 585.43 C 677.00 585.19 674.78 585.00 672.06 585.00 C 669.34 585.00 666.89 584.63 666.61 584.18 C 666.04 583.25 683.48 553.67 684.89 553.20 C 686.19 552.77 704.28 583.12 703.30 584.09 C 702.86 584.52 700.36 585.02 697.74 585.19 L 692.99 585.50 L 702.49 601.79 C 707.72 610.75 712.00 618.72 712.00 619.49 C 712.00 620.50 710.40 620.99 706.37 621.20 L 700.75 621.50 L 710.87 636.77 C 716.44 645.17 721.00 652.48 721.00 653.02 C 721.00 653.56 718.81 654.00 716.12 654.00 C 713.44 654.00 709.86 654.28 708.16 654.62 C 707.11 654.83 706.31 654.92 706.01 655.35 C 705.24 656.44 707.57 659.70 716.71 672.53 C 717.22 673.26 717.76 674.01 718.32 674.80 C 728.68 689.34 729.30 690.00 732.57 690.00 L 736.00 690.00 L 735.90 570.50 L 631.61 474.05 C 574.25 421.01 526.76 377.42 526.08 377.19 C 525.41 376.97 523.20 378.11 521.18 379.73 C 519.15 381.35 507.15 390.76 494.50 400.65 C 481.85 410.54 437.75 445.14 396.50 477.54 C 340.76 521.32 320.82 536.45 318.85 536.47 C 316.83 536.49 307.11 529.04 278.04 505.17 C 257.05 487.93 239.31 474.05 238.61 474.32 C 237.92 474.58 227.93 481.68 216.42 490.09 C 204.92 498.50 190.77 508.81 185.00 513.01 C 160.15 531.06 132.14 551.51 127.75 554.83 Z M 254.04 472.42 C 260.89 478.16 266.83 482.88 267.24 482.92 C 267.93 483.00 332.69 453.55 337.96 450.77 C 341.96 448.66 344.28 438.32 344.30 422.50 C 344.31 411.19 343.96 408.33 341.60 400.54 C 333.60 374.14 315.39 355.22 289.50 346.41 C 282.73 344.11 279.34 343.62 267.44 343.22 C 255.39 342.83 252.19 343.06 244.98 344.89 C 219.09 351.43 199.00 369.00 189.28 393.60 C 185.50 403.17 184.02 411.44 184.01 423.07 C 184.00 433.85 185.38 441.42 189.15 451.21 C 192.04 458.73 201.16 474.00 202.76 474.00 C 203.20 474.00 211.63 471.30 221.50 468.00 C 231.37 464.70 239.92 462.00 240.51 462.00 C 241.10 462.00 247.19 466.69 254.04 472.42 Z M 369.00 688.75 C 369.00 689.74 381.18 690.00 426.57 690.00 L 484.14 690.00 L 492.75 672.25 C 510.81 635.04 535.79 582.49 535.55 582.23 C 535.41 582.08 522.83 582.37 507.60 582.87 C 484.40 583.63 453.48 583.19 422.69 581.64 C 419.93 581.50 419.34 582.61 394.44 634.50 C 380.45 663.65 369.00 688.06 369.00 688.75 Z M 296.78 507.75 C 308.18 517.16 317.95 524.88 318.50 524.91 C 319.05 524.95 330.77 516.09 344.55 505.24 C 358.33 494.38 395.36 465.31 426.84 440.62 C 458.32 415.94 483.89 395.55 483.65 395.31 C 483.06 394.72 481.66 395.34 438.50 415.25 C 389.14 438.01 314.69 472.27 295.00 481.29 C 286.48 485.19 278.73 488.89 277.78 489.51 C 276.29 490.49 278.88 492.97 296.78 507.75 Z M 707.91 531.22 C 722.53 544.81 734.84 555.95 735.25 555.97 C 735.66 555.99 736.00 531.70 736.00 502.00 C 736.00 468.42 735.64 448.00 735.05 448.00 C 734.19 448.00 664.21 487.56 663.00 488.72 C 662.72 488.99 666.73 493.10 671.91 497.85 C 677.08 502.61 693.28 517.62 707.91 531.22 Z M 496.00 689.59 C 496.00 689.84 505.79 689.92 517.75 689.77 L 539.50 689.50 L 539.76 645.25 C 539.90 620.91 539.66 601.00 539.23 601.00 C 538.79 601.00 536.92 604.04 535.07 607.75 C 529.39 619.18 496.00 689.12 496.00 689.59 Z M 550.00 644.80 L 550.00 690.00 L 571.50 690.00 C 584.87 690.00 593.00 689.63 593.00 689.02 C 593.00 687.84 552.06 601.90 550.85 600.55 C 550.38 600.03 550.00 619.94 550.00 644.80 Z M 122.50 542.84 C 122.67 543.51 122.61 544.15 122.89 544.39 C 123.70 545.07 127.35 542.40 147.58 527.62 C 150.12 525.77 152.91 523.72 156.00 521.47 C 171.68 510.03 189.52 497.03 195.65 492.58 C 201.78 488.14 206.44 484.37 206.00 484.20 C 205.56 484.04 186.59 490.16 163.85 497.82 L 122.50 511.74 L 122.21 526.12 C 122.06 534.03 122.19 541.55 122.50 542.84 Z M 566.21 608.48 C 567.98 612.07 569.67 614.99 569.96 614.98 C 570.26 614.97 572.39 612.08 574.70 608.57 C 578.09 603.40 578.60 602.06 577.37 601.59 C 575.54 600.88 563.00 600.79 563.00 601.48 C 563.00 601.75 564.45 604.90 566.21 608.48 Z" stroke-linecap="round"></path>
</g>
		<g id="bef56c34-dd6b-44e2-90ea-8075cc90f861-child-1">
<path style="stroke: rgb(193,193,193); stroke-width: 0; stroke-dasharray: none; stroke-linecap: butt; stroke-dashoffset: 0; stroke-linejoin: miter; stroke-miterlimit: 4; fill: rgb(26,85,49); fill-rule: nonzero; opacity: 1;" transform="matrix(1.36289 0 0 1.36289 526.666674 526.666677) matrix(1 0 0 1 -1.426171 91.511172)  translate(-429.073829, -700.511172)" d="M 399.50 1004.92 C 319.49 996.73 246.49 957.26 193.43 893.50 C 158.27 851.24 133.71 795.63 125.54 739.79 C 123.80 727.89 121.87 702.02 122.63 700.79 C 122.90 700.35 261.02 700.00 429.56 700.00 L 736.00 700.00 L 735.99 708.75 C 735.98 718.66 733.84 740.09 731.52 753.50 C 722.18 807.68 696.37 861.04 659.60 902.22 C 606.64 961.52 536.90 997.28 459.14 1004.97 C 447.21 1006.16 411.27 1006.12 399.50 1004.92 Z M 537.68 808.35 C 538.08 808.75 542.03 808.95 546.45 808.79 L 554.50 808.50 L 554.78 794.75 C 554.93 787.19 555.38 781.01 555.78 781.03 C 556.18 781.05 561.36 787.35 567.30 795.03 L 578.10 809.00 L 594.93 809.00 C 607.19 809.00 612.03 808.66 612.76 807.75 C 613.31 807.06 614.77 803.69 616.01 800.25 L 618.27 794.00 L 647.52 794.00 L 650.11 801.25 L 652.70 808.50 L 661.01 808.79 C 665.58 808.95 669.67 808.73 670.09 808.29 C 670.52 807.86 664.25 791.08 656.16 771.00 L 641.44 734.50 L 632.97 734.22 L 624.50 733.93 L 610.63 768.47 C 603.00 787.46 596.38 803.00 595.92 803.00 C 595.45 803.00 590.29 797.30 584.45 790.32 L 573.83 777.65 L 576.66 776.20 C 583.87 772.53 588.02 765.76 588.73 756.53 C 589.13 751.30 588.81 749.78 586.31 745.03 C 583.97 740.59 582.44 739.05 578.10 736.78 C 572.85 734.04 572.50 734.00 554.93 734.00 L 537.09 734.00 L 537.02 770.81 C 536.99 791.06 537.28 807.95 537.68 808.35 Z M 296.78 507.75 C 278.88 492.97 276.29 490.49 277.78 489.51 C 278.73 488.89 286.48 485.19 295.00 481.29 C 314.69 472.27 389.14 438.01 438.50 415.25 C 481.66 395.34 483.06 394.72 483.65 395.31 C 483.89 395.55 458.32 415.94 426.84 440.62 C 395.36 465.31 358.33 494.38 344.55 505.24 C 330.77 516.09 319.05 524.95 318.50 524.91 C 317.95 524.88 308.18 517.16 296.78 507.75 Z M 315.70 808.29 C 315.96 808.72 319.84 808.95 324.33 808.79 L 332.50 808.50 L 334.19 788.50 C 335.11 777.50 335.90 767.86 335.94 767.08 C 336.08 763.95 337.81 768.02 344.53 787.32 L 351.57 807.50 L 361.82 808.10 L 363.75 802.80 C 364.81 799.88 368.09 790.63 371.03 782.24 C 374.03 773.70 376.77 767.37 377.25 767.85 C 377.73 768.33 378.88 777.67 379.81 788.61 L 381.50 808.50 L 389.90 808.79 L 398.31 809.09 L 397.67 799.79 C 397.32 794.68 395.90 777.90 394.52 762.50 C 393.14 747.10 392.00 734.39 392.00 734.25 C 392.00 734.11 387.77 734.00 382.60 734.00 L 373.21 734.00 L 369.06 744.75 C 366.77 750.66 363.24 759.88 361.20 765.23 C 359.17 770.58 357.26 774.97 356.97 774.98 C 356.68 774.99 355.96 773.76 355.37 772.25 C 354.78 770.74 351.23 761.51 347.47 751.75 L 340.65 734.00 L 331.33 734.00 C 326.20 734.00 321.98 734.34 321.96 734.75 C 321.94 735.16 320.41 751.70 318.57 771.50 C 316.74 791.30 315.44 807.86 315.70 808.29 Z M 707.91 531.22 C 693.28 517.62 677.08 502.61 671.91 497.85 C 666.73 493.10 662.72 488.99 663.00 488.72 C 664.21 487.56 734.19 448.00 735.05 448.00 C 735.64 448.00 736.00 468.42 736.00 502.00 C 736.00 531.70 735.66 555.99 735.25 555.97 C 734.84 555.95 722.53 544.81 707.91 531.22 Z M 405.67 808.33 C 406.77 809.43 435.50 809.09 440.99 807.91 C 447.16 806.59 453.62 801.86 456.26 796.75 C 458.76 791.91 458.86 782.57 456.48 777.95 C 454.56 774.25 451.54 771.39 448.50 770.41 C 444.38 769.07 444.10 768.06 447.03 765.13 C 452.16 759.99 453.28 749.30 449.45 741.91 C 448.41 739.90 446.08 738.02 442.68 736.43 C 437.88 734.19 436.32 734.02 421.25 734.01 L 405.00 734.00 L 405.00 770.83 C 405.00 791.09 405.30 807.97 405.67 808.33 Z M 458.66 808.26 C 458.94 808.71 463.01 808.95 467.72 808.79 L 476.28 808.50 L 478.93 801.50 L 481.59 794.50 L 496.22 794.22 C 510.68 793.95 510.86 793.97 511.55 796.22 C 511.94 797.48 513.13 800.86 514.20 803.75 L 516.14 809.00 L 524.51 809.00 C 529.12 809.00 533.13 808.60 533.43 808.11 C 533.74 807.62 527.36 790.73 519.26 770.57 L 504.54 733.93 L 496.07 734.21 L 487.59 734.50 L 472.87 770.97 C 464.78 791.03 458.38 807.81 458.66 808.26 Z M 304.00 825.00 L 304.00 901.08 L 312.25 900.79 L 320.50 900.50 L 321.05 871.00 L 344.95 871.00 L 345.50 900.50 L 361.50 900.50 L 361.76 862.71 L 362.02 824.92 L 353.76 825.21 L 345.50 825.50 L 344.95 855.00 L 321.00 855.00 L 321.00 825.00 Z M 195.00 734.00 L 195.00 809.08 L 203.25 808.79 L 211.50 808.50 L 211.78 793.25 C 211.93 784.86 212.38 778.03 212.78 778.07 C 213.17 778.10 215.69 780.69 218.37 783.82 C 221.05 786.94 227.03 793.89 231.67 799.25 L 240.11 809.00 L 250.89 809.00 C 256.82 809.00 261.94 808.73 262.27 808.39 C 262.61 808.06 255.43 799.40 246.32 789.14 C 237.21 778.89 229.55 769.96 229.29 769.30 C 229.04 768.65 235.17 760.65 242.91 751.53 C 250.66 742.41 257.00 734.74 257.00 734.48 C 257.00 734.21 252.52 734.00 247.04 734.00 L 237.08 734.00 L 224.79 748.51 L 212.50 763.01 L 212.22 748.51 L 211.95 734.00 Z M 266.69 808.35 C 267.06 808.73 276.63 808.92 287.94 808.77 L 308.50 808.50 L 308.79 801.25 L 309.09 794.00 L 284.00 794.00 L 284.00 779.06 L 307.50 778.50 L 307.79 771.25 L 308.09 764.00 L 302.29 763.82 C 299.11 763.72 294.70 763.59 292.50 763.52 C 287.73 763.38 285.63 763.45 284.70 762.44 C 283.97 761.65 283.98 760.18 284.00 757.39 C 284.00 756.96 284.00 756.51 284.00 756.03 L 284.00 749.06 L 296.25 748.78 L 308.50 748.50 L 308.79 741.25 L 309.09 734.00 L 266.00 734.00 L 266.00 770.83 C 266.00 791.09 266.31 807.98 266.69 808.35 Z M 517.15 900.49 C 524.65 902.59 536.07 901.94 542.74 899.04 C 554.66 893.86 560.07 881.36 555.12 870.46 C 552.70 865.13 548.58 861.81 537.59 856.32 C 527.15 851.11 524.00 848.58 524.00 845.38 C 524.00 839.14 534.02 838.27 546.19 843.45 C 547.54 844.02 548.53 842.90 551.01 837.98 C 552.73 834.58 553.91 831.21 553.64 830.49 C 552.85 828.45 542.15 824.90 535.00 824.31 C 526.94 823.64 521.36 825.09 515.79 829.29 C 507.57 835.49 504.82 845.87 509.08 854.66 C 511.81 860.30 515.09 862.93 527.07 869.08 C 534.72 873.01 537.15 874.76 537.63 876.67 C 538.98 882.03 534.74 886.00 527.68 886.00 C 524.38 886.00 512.75 881.02 511.56 879.10 C 510.14 876.80 508.29 878.21 504.71 884.34 C 502.67 887.82 501.00 891.09 501.00 891.60 C 501.00 893.15 511.43 898.89 517.15 900.49 Z M 401.46 899.77 C 401.84 900.75 406.62 900.98 422.73 900.77 L 443.50 900.50 L 444.09 886.06 L 419.50 885.50 L 418.50 825.50 L 401.50 825.50 L 401.24 862.00 C 401.09 882.07 401.19 899.06 401.46 899.77 Z M 453.00 826.04 L 453.00 901.04 L 495.50 900.50 L 495.79 893.28 L 496.09 886.06 L 483.29 885.78 L 470.50 885.50 L 469.50 825.50 L 463.54 825.19 C 460.26 825.03 456.55 825.15 455.29 825.46 Z M 122.50 542.84 C 122.19 541.55 122.06 534.03 122.21 526.12 L 122.50 511.74 L 163.85 497.82 C 186.59 490.16 205.56 484.04 206.00 484.20 C 206.44 484.37 201.78 488.14 195.65 492.58 C 189.52 497.03 171.68 510.03 156.00 521.47 C 152.91 523.72 150.12 525.77 147.58 527.62 L 147.58 527.62 C 127.35 542.41 123.70 545.07 122.89 544.39 C 122.61 544.15 122.67 543.51 122.50 542.84 Z M 373.71 900.37 C 374.09 900.76 377.81 900.95 381.96 900.79 L 389.50 900.50 L 390.02 825.00 L 373.00 825.00 L 373.00 862.33 C 373.00 882.87 373.32 899.98 373.71 900.37 Z M 448.25 956.39 C 449.99 957.16 457.67 956.25 460.03 954.98 C 462.90 953.45 463.62 949.34 461.44 946.94 C 460.07 945.42 459.92 944.68 460.82 943.78 C 462.35 942.25 462.33 938.73 460.80 937.20 C 460.12 936.52 456.87 936.00 453.30 936.00 L 447.00 936.00 L 447.00 945.92 C 447.00 952.89 447.37 956.00 448.25 956.39 Z M 567.64 763.87 C 566.15 765.27 563.44 766.28 560.15 766.67 L 555.00 767.28 L 555.00 746.72 L 559.97 747.31 C 562.71 747.63 565.88 748.40 567.02 749.01 C 571.62 751.47 571.97 759.80 567.64 763.87 Z M 438.13 792.08 C 436.61 793.97 435.05 794.47 429.63 794.81 L 423.00 795.23 L 423.00 778.00 L 428.87 778.00 C 436.59 778.00 440.00 780.44 440.00 785.96 C 440.00 788.20 439.23 790.73 438.13 792.08 Z M 483.57 961.43 C 485.94 963.80 493.50 963.50 496.06 960.94 C 498.93 958.07 498.23 954.76 494.50 953.63 C 488.55 951.83 488.36 951.72 490.50 951.24 C 493.54 950.56 496.00 947.95 496.00 945.40 C 496.00 944.15 496.56 942.75 497.25 942.31 C 498.69 941.38 490.85 940.27 487.17 940.88 C 484.42 941.33 482.40 945.11 483.53 947.69 C 484.78 950.52 484.63 955.07 483.25 956.21 C 481.56 957.61 481.68 959.53 483.57 961.43 Z M 467.80 953.95 C 471.47 957.62 473.97 957.79 477.67 954.61 C 479.87 952.71 480.45 951.36 480.45 948.12 C 480.45 942.80 478.36 940.73 473.00 940.73 C 468.05 940.73 466.14 942.36 465.34 947.27 C 464.84 950.40 465.18 951.33 467.80 953.95 Z M 502.63 954.93 C 506.22 957.75 508.62 957.53 512.08 954.08 C 518.73 947.43 512.79 937.85 504.07 941.16 C 500.71 942.44 500.03 943.70 500.02 948.68 C 500.00 952.01 500.53 953.27 502.63 954.93 Z M 640.41 778.15 C 640.12 778.62 636.48 779.00 632.33 779.00 C 624.87 779.00 624.79 778.97 625.38 776.60 C 626.51 772.11 632.17 758.00 632.85 758.00 C 633.84 758.00 641.02 777.16 640.41 778.15 Z M 332.69 956.35 C 334.14 957.81 335.51 956.19 335.81 952.67 C 336.08 949.51 336.47 949.00 338.61 949.00 C 341.50 949.00 346.00 944.91 346.00 942.27 C 346.00 941.27 345.30 939.44 344.44 938.22 C 343.16 936.39 341.93 936.00 337.44 936.00 L 332.00 936.00 L 332.00 945.83 C 332.00 951.24 332.31 955.98 332.69 956.35 Z M 503.53 777.95 C 502.75 779.21 489.35 779.37 488.58 778.14 C 488.29 777.66 489.75 772.90 491.83 767.55 C 494.67 760.26 495.87 758.16 496.65 759.16 C 498.61 761.70 504.18 776.90 503.53 777.95 Z M 351.09 955.09 C 352.57 956.57 353.82 956.98 355.34 956.47 C 356.53 956.08 358.96 955.82 360.75 955.88 L 364.00 956.00 L 364.00 948.50 C 364.00 941.21 363.93 941.00 361.55 941.00 C 359.27 941.00 359.08 941.40 358.80 946.75 C 358.54 951.73 358.23 952.50 356.50 952.50 C 354.77 952.50 354.46 951.73 354.20 946.75 C 353.92 941.40 353.73 941.00 351.45 941.00 C 349.12 941.00 349.00 941.30 349.00 947.00 C 349.00 951.76 349.43 953.43 351.09 955.09 Z M 420.60 956.26 C 421.84 957.51 424.00 955.69 424.00 953.39 C 424.00 950.27 426.48 950.28 428.54 953.42 C 429.41 954.74 430.84 956.11 431.73 956.45 C 434.89 957.66 434.95 955.33 431.87 951.14 L 428.74 946.88 L 431.56 943.94 L 434.37 941.00 L 431.99 941.00 C 430.68 941.00 428.35 942.21 426.80 943.69 L 424.00 946.37 L 424.00 940.08 C 424.00 934.75 423.76 933.88 422.42 934.39 C 421.55 934.73 420.65 935.00 420.42 935.00 C 419.76 935.00 419.93 955.60 420.60 956.26 Z M 403.25 955.48 C 404.58 956.43 406.32 956.81 407.50 956.42 C 408.60 956.06 410.76 955.80 412.29 955.84 L 415.09 955.93 L 414.79 948.78 C 414.51 941.85 414.41 941.61 411.62 940.87 C 408.05 939.92 402.79 940.87 403.29 942.38 C 403.49 943.00 405.34 943.64 407.39 943.81 C 412.17 944.22 411.66 946.28 406.56 947.11 C 400.80 948.04 399.04 952.50 403.25 955.48 Z M 432.64 759.87 C 431.35 761.08 428.65 762.35 426.64 762.67 L 423.00 763.26 L 423.00 747.00 L 426.07 747.00 C 429.29 747.00 432.99 748.54 434.23 750.40 C 435.81 752.76 434.98 757.67 432.64 759.87 Z M 369.25 956.33 C 371.79 957.35 372.51 956.21 373.00 950.42 C 373.47 944.91 373.67 944.50 376.00 944.50 C 378.33 944.50 378.53 944.90 379.00 950.50 C 379.37 954.94 379.89 956.50 381.00 956.50 C 382.14 956.50 382.57 955.00 382.80 950.16 C 383.19 941.86 382.40 941.00 374.39 941.12 L 368.00 941.22 L 368.00 948.53 C 368.00 953.44 368.41 956.00 369.25 956.33 Z M 390.32 955.99 C 393.42 957.24 395.42 957.18 396.80 955.80 C 398.64 953.96 398.24 953.00 395.62 953.00 C 392.50 953.00 390.78 950.80 391.18 947.31 C 391.45 944.97 392.03 944.45 394.66 944.19 C 396.41 944.02 398.08 943.24 398.38 942.44 C 398.82 941.31 397.89 941.00 394.03 941.00 C 390.08 941.00 388.81 941.44 387.56 943.22 C 384.58 947.47 386.05 954.27 390.32 955.99 Z M 519.69 956.35 C 521.31 957.98 522.53 955.98 523.00 950.96 C 523.44 946.23 523.80 945.51 526.00 944.99 C 529.15 944.26 529.62 940.31 526.50 940.85 C 525.40 941.03 523.26 941.17 521.75 941.14 L 519.00 941.08 L 519.00 948.37 C 519.00 952.38 519.31 955.98 519.69 956.35 Z M 474.95 951.56 C 473.15 953.73 471.11 953.29 470.43 950.58 C 469.42 946.54 470.28 944.50 473.01 944.50 C 475.00 944.50 475.57 945.07 475.82 947.31 C 476.00 948.86 475.61 950.77 474.95 951.56 Z M 509.50 948.49 C 509.50 951.34 509.05 952.56 507.91 952.78 C 505.61 953.22 503.80 950.57 504.18 947.31 C 504.44 945.07 505.00 944.50 507.00 944.50 C 509.25 944.50 509.50 944.90 509.50 948.49 Z M 436.71 950.38 C 438.11 951.78 443.47 950.55 443.82 948.75 C 444.09 947.32 443.41 947.00 440.07 947.00 C 436.20 947.00 434.77 948.44 436.71 950.38 Z M 456.80 951.80 C 454.65 953.95 452.00 953.24 452.00 950.50 C 452.00 948.39 452.47 948.00 455.00 948.00 C 458.15 948.00 458.93 949.67 456.80 951.80 Z M 491.43 960.02 C 491.21 960.11 491.01 960.19 490.82 960.26 C 489.45 960.79 488.90 961.00 488.45 960.86 C 488.09 960.75 487.80 960.40 487.20 959.80 C 485.13 957.73 485.87 957.00 490.00 957.00 C 494.53 957.00 495.27 958.57 491.43 960.02 Z M 340.82 942.25 C 340.61 943.70 339.70 944.61 338.25 944.82 C 336.42 945.08 336.00 944.66 336.00 942.57 C 336.00 940.48 336.48 940.00 338.57 940.00 C 340.66 940.00 341.08 940.42 340.82 942.25 Z M 491.82 945.24 C 491.35 948.56 488.00 948.86 488.00 945.57 C 488.00 943.64 488.51 943.00 490.07 943.00 C 491.64 943.00 492.06 943.54 491.82 945.24 Z M 456.81 941.75 C 456.63 942.71 455.47 943.64 454.24 943.82 C 452.54 944.06 452.00 943.64 452.00 942.07 C 452.00 940.51 452.64 940.00 454.57 940.00 C 456.48 940.00 457.06 940.45 456.81 941.75 Z M 410.02 951.48 C 408.42 953.40 406.00 953.46 406.00 951.57 C 406.00 950.09 409.71 948.38 410.72 949.38 C 411.03 949.70 410.72 950.64 410.02 951.48 Z" stroke-linecap="round"></path>
</g>
		<g id="bef56c34-dd6b-44e2-90ea-8075cc90f861-child-2">
<path style="stroke: rgb(193,193,193); stroke-width: 0; stroke-dasharray: none; stroke-linecap: butt; stroke-dashoffset: 0; stroke-linejoin: miter; stroke-miterlimit: 4; fill: rgb(63,134,62); fill-rule: nonzero; opacity: 1;" transform="matrix(1.36289 0 0 1.36289 526.666674 526.666677) matrix(1 0 0 1 -1.444165 -75.42753)  translate(-429.055835, -533.57247)" d="M 366.43 664.39 C 365.89 665.74 366.06 666.15 367.03 665.82 C 367.53 665.66 369.87 661.52 372.91 655.56 C 370.24 661.03 368.15 665.23 366.54 668.39 C 366.71 667.83 366.77 667.44 366.66 667.33 C 366.42 667.09 365.38 667.97 364.35 669.28 C 362.33 671.85 360.42 671.73 357.90 668.86 C 357.02 667.86 356.05 667.29 355.74 667.59 C 355.24 668.09 353.60 664.24 353.78 663.00 C 353.82 662.72 352.95 661.04 351.85 659.25 L 349.84 656.00 L 356.95 656.00 C 364.98 656.00 366.15 655.00 363.57 650.34 C 361.61 646.83 353.93 635.83 349.79 630.63 C 348.10 628.50 346.67 625.80 346.61 624.63 C 346.55 623.45 345.99 622.69 344.91 622.34 L 347.52 622.20 C 354.24 621.84 355.24 620.32 351.76 615.74 C 351.37 615.23 350.73 614.28 349.93 613.02 C 350.93 614.35 351.05 613.92 350.48 612.00 C 350.07 610.62 349.35 609.35 348.87 609.17 C 348.39 608.98 348.00 607.94 348.00 606.86 C 348.00 605.77 347.55 605.16 347.00 605.50 C 346.45 605.84 346.00 605.64 346.00 605.06 C 346.00 603.24 345.67 602.56 343.81 600.56 C 342.81 599.50 342.00 597.89 342.00 597.00 C 342.00 596.11 341.34 594.51 340.53 593.44 C 339.72 592.37 339.05 590.99 339.03 590.36 C 339.01 589.42 342.29 587.93 345.17 587.58 C 347.52 587.29 347.09 581.24 344.53 578.68 C 343.82 577.96 342.17 575.45 340.87 573.10 C 336.61 565.41 335.49 563.55 332.73 559.52 C 331.23 557.33 330.00 555.97 330.00 556.49 C 330.00 557.02 329.31 556.46 328.47 555.26 C 327.16 553.39 326.59 553.23 324.49 554.19 C 323.14 554.80 321.80 556.06 321.51 556.98 C 321.22 557.90 320.19 559.51 319.24 560.57 C 318.28 561.63 315.74 565.88 313.60 570.00 C 311.46 574.12 308.60 578.96 307.25 580.74 C 305.89 582.52 305.00 584.55 305.27 585.26 C 305.74 586.50 308.71 588.25 312.22 589.37 C 313.80 589.87 313.74 590.37 311.50 595.20 C 310.15 598.11 308.59 600.64 308.03 600.82 C 307.46 601.01 307.00 602.23 307.00 603.53 C 307.00 604.84 306.39 606.26 305.63 606.70 C 304.88 607.14 302.86 610.35 301.14 613.83 C 295.61 625.04 299.61 620.02 308.74 604.37 C 303.88 612.79 300.00 620.02 300.00 620.70 C 300.00 621.61 301.66 622.00 305.50 622.00 C 306.29 622.00 307.04 622.02 307.72 622.05 C 306.67 622.20 306.00 622.66 306.07 623.25 C 306.48 626.34 305.74 627.86 302.00 631.76 C 299.80 634.05 298.00 636.56 298.00 637.34 C 298.00 638.12 297.37 639.28 296.61 639.91 C 295.84 640.55 294.69 642.34 294.04 643.90 C 293.39 645.46 291.77 647.24 290.43 647.85 C 287.78 649.06 287.13 652.73 289.20 654.80 C 289.86 655.46 293.01 656.00 296.20 656.00 C 302.35 656.00 302.65 656.30 300.88 660.70 C 298.56 666.47 297.67 667.92 296.80 667.37 C 296.30 667.07 295.37 668.21 294.73 669.91 C 294.09 671.61 292.87 673.00 292.03 672.99 C 290.48 672.99 286.00 667.27 286.00 665.30 C 286.00 664.70 284.09 662.03 281.75 659.36 C 277.30 654.27 273.00 648.46 273.00 647.54 C 273.00 647.24 276.41 647.00 280.57 647.00 C 288.47 647.00 290.15 646.27 291.42 642.25 C 291.89 640.76 291.48 639.48 290.05 638.05 C 288.92 636.92 288.00 635.65 288.00 635.22 C 288.00 634.80 285.52 630.89 282.50 626.55 C 279.48 622.20 277.00 618.14 277.00 617.53 C 277.00 616.92 274.98 614.43 272.50 612.00 C 266.77 606.38 266.57 604.00 271.81 604.00 C 273.90 604.00 276.49 603.34 277.56 602.53 C 279.32 601.20 278.85 601.06 272.31 601.03 C 268.35 601.01 264.85 601.43 264.53 601.95 C 264.85 601.43 268.24 601.00 272.06 601.00 C 275.88 601.00 278.99 600.66 278.99 600.25 C 278.98 599.84 273.36 589.83 266.49 578.00 L 254.01 556.50 L 254.28 556.49 C 254.24 556.57 254.24 556.66 254.29 556.75 C 254.51 557.16 260.25 567.13 267.05 578.90 C 273.84 590.67 279.57 599.79 279.78 599.16 C 280.19 597.92 273.08 584.36 269.41 579.39 C 268.14 577.67 266.79 574.97 266.39 573.39 C 266.00 571.80 264.88 569.60 263.91 568.50 C 262.93 567.40 260.98 565.20 259.58 563.62 C 257.76 561.56 257.20 560.06 257.62 558.37 C 257.90 557.28 257.93 556.67 257.59 556.34 L 260.75 556.20 C 264.46 556.03 267.88 555.52 268.35 555.05 C 268.82 554.58 266.75 550.44 263.75 545.85 C 262.83 544.43 261.67 542.62 260.42 540.62 C 263.73 545.76 265.00 547.02 265.00 545.43 C 265.00 544.14 262.56 540.41 260.97 539.28 C 260.02 538.61 258.54 535.89 257.67 533.23 C 254.31 522.96 244.90 512.12 242.59 515.86 C 242.26 516.38 242.79 516.61 243.75 516.36 C 243.86 516.33 243.97 516.33 244.10 516.35 C 242.68 517.99 238.10 525.18 233.39 532.91 C 237.00 526.80 240.00 521.64 240.00 521.41 C 240.00 521.14 239.10 521.41 238.00 522.00 C 236.90 522.59 236.00 523.49 236.00 524.00 C 236.00 524.52 234.26 527.54 232.14 530.72 C 221.07 547.30 219.01 550.87 219.62 552.46 C 219.98 553.38 220.59 553.77 220.99 553.32 C 221.35 552.90 223.77 548.97 226.77 543.99 C 223.45 549.69 221.00 554.15 221.00 554.78 C 221.00 555.62 223.17 556.00 228.00 556.00 C 229.76 556.00 231.37 556.05 232.61 556.12 C 231.60 556.45 230.61 557.06 230.40 557.75 C 230.10 558.71 229.24 560.92 228.49 562.65 C 227.74 564.38 227.40 566.07 227.73 566.40 C 228.06 566.73 228.44 567.00 228.58 567.00 C 228.94 567.00 235.00 557.07 235.00 556.48 C 235.00 557.36 228.68 567.44 226.31 570.33 C 225.04 571.88 224.00 573.69 224.00 574.34 C 224.00 574.74 222.77 577.21 220.91 580.60 C 220.97 580.48 221.00 580.41 221.00 580.38 C 221.00 580.16 220.10 580.55 219.00 581.23 C 217.90 581.92 217.00 582.83 217.00 583.25 C 217.00 583.67 215.75 585.74 214.22 587.85 C 212.70 589.96 210.58 593.59 209.53 595.93 C 206.88 601.81 208.04 603.36 215.60 604.00 C 219.59 604.34 221.42 604.91 221.25 605.75 C 220.79 608.03 222.54 607.04 224.34 604.00 L 225.82 601.49 L 226.11 601.50 L 216.14 616.22 C 219.06 611.84 221.00 608.81 221.00 608.60 C 221.00 605.14 211.72 616.96 208.62 624.36 C 207.79 626.36 206.60 628.00 205.99 628.00 C 205.38 628.00 205.12 628.39 205.41 628.86 C 205.71 629.33 204.47 631.25 202.67 633.11 C 197.39 638.57 195.66 641.82 197.25 643.28 C 200.36 646.14 203.46 647.12 208.58 646.89 C 211.54 646.75 214.25 646.91 214.59 647.25 C 214.93 647.59 214.48 648.90 213.60 650.16 C 212.72 651.42 212.00 653.24 212.00 654.22 C 212.00 655.20 211.44 656.01 210.75 656.02 C 209.34 656.03 199.67 669.75 199.67 671.72 C 199.67 672.43 198.62 673.00 197.33 673.00 C 196.05 673.00 195.00 672.50 195.00 671.89 C 195.00 671.29 193.60 669.01 191.88 666.85 C 190.16 664.68 188.93 662.76 189.13 662.59 C 189.33 662.41 191.30 661.80 193.50 661.24 C 197.01 660.33 197.32 660.22 192.51 660.13 C 195.91 659.92 197.59 659.53 197.93 658.88 C 198.02 659.11 198.06 659.29 198.06 659.40 C 198.12 661.42 198.16 661.41 199.04 659.23 C 200.10 656.60 196.79 649.23 194.10 648.22 C 191.95 647.42 190.07 644.89 190.03 642.75 C 190.01 641.79 189.55 641.00 189.00 641.00 C 188.45 641.00 188.00 640.47 188.00 639.83 C 188.00 639.18 187.28 637.87 186.41 636.90 C 185.21 635.57 185.08 634.70 185.88 633.32 C 186.46 632.32 186.95 632.00 186.97 632.61 C 187.01 634.14 192.03 633.08 192.67 631.41 C 192.95 630.69 192.46 629.07 191.59 627.82 C 190.72 626.58 190.00 624.59 190.00 623.40 C 190.00 622.21 189.27 620.64 188.39 619.91 C 187.50 619.17 185.81 616.57 184.64 614.12 C 183.46 611.67 181.72 609.56 180.76 609.43 C 179.96 609.31 179.55 609.34 180.04 610.57 C 178.74 608.24 177.35 605.91 176.63 604.89 C 176.04 604.04 175.61 603.37 175.38 602.85 C 175.61 603.31 176.02 603.87 176.57 604.56 C 177.44 605.63 177.89 605.99 177.59 605.36 C 176.81 603.79 179.40 601.83 181.30 602.56 C 182.91 603.18 185.00 600.40 185.00 597.63 C 185.00 596.80 183.20 594.04 181.00 591.50 C 178.80 588.96 177.00 586.21 177.00 585.40 C 177.00 583.78 174.60 579.60 171.88 576.50 C 170.91 575.40 170.16 574.05 170.20 573.50 C 170.24 572.95 169.22 571.96 167.94 571.31 C 165.82 570.23 165.39 570.44 163.25 573.58 C 161.96 575.48 161.22 577.55 161.61 578.17 C 162.01 578.83 161.87 579.04 161.26 578.66 C 160.68 578.30 159.96 578.67 159.65 579.47 C 159.34 580.27 157.02 584.07 154.49 587.91 C 147.37 598.71 146.91 603.50 153.00 603.50 C 155.02 603.50 155.45 603.95 155.25 605.81 C 155.00 608.18 156.00 608.02 157.45 605.81 L 153.25 613.05 C 154.30 611.16 155.00 609.82 155.00 609.59 C 155.00 609.26 154.10 609.55 153.00 610.23 C 151.90 610.92 151.00 612.19 151.00 613.05 C 151.00 613.92 150.20 615.50 149.22 616.56 C 146.70 619.32 143.00 625.85 143.00 627.56 C 143.00 628.35 143.21 629.00 143.47 629.00 C 143.75 629.00 146.96 623.82 149.92 618.81 C 146.52 624.78 144.00 629.50 144.00 629.94 C 144.00 630.22 144.62 630.51 145.59 630.74 C 144.22 630.65 143.25 630.63 143.13 630.70 C 142.35 631.14 145.93 634.00 147.26 634.00 C 149.85 634.00 149.75 635.05 146.87 638.14 C 145.29 639.83 144.00 641.85 144.00 642.64 C 144.00 644.64 140.95 649.09 139.99 648.49 C 138.89 647.81 135.00 654.64 135.00 657.26 C 135.00 658.55 138.14 654.68 143.59 646.67 C 139.30 653.14 136.20 658.51 136.51 659.01 C 136.84 659.55 140.05 660.00 143.64 660.00 C 147.22 660.00 150.01 660.39 149.83 660.87 C 150.01 660.39 147.09 660.08 143.33 660.17 C 139.42 660.26 138.07 660.50 140.16 660.72 C 142.21 660.94 144.08 661.77 144.40 662.61 C 145.01 664.20 140.38 671.39 135.75 676.04 C 134.24 677.56 133.00 679.26 133.00 679.82 C 133.00 680.39 131.83 682.23 130.41 683.92 C 130.23 684.14 130.06 684.34 129.89 684.54 C 128.66 686.02 127.74 687.13 127.05 687.00 C 124.99 686.61 125.00 675.22 125.00 629.81 C 125.00 627.75 125.00 625.61 125.00 623.41 L 125.00 559.82 L 127.25 557.91 C 128.49 556.86 132.43 554.02 136.00 551.60 C 139.57 549.17 144.51 545.35 146.96 543.10 C 149.41 540.84 151.75 539.00 152.16 539.00 C 153.54 539.00 161.50 533.16 162.60 531.32 C 163.21 530.32 165.80 528.45 168.36 527.17 C 170.93 525.89 172.81 524.50 172.55 524.07 C 172.28 523.65 173.07 522.84 174.28 522.28 C 180.44 519.46 181.75 518.66 184.82 515.90 C 186.64 514.25 187.99 512.50 187.82 512.00 C 187.54 511.21 178.53 517.62 132.75 551.16 L 127.88 554.73 C 132.66 551.14 160.37 530.89 185.00 513.01 C 187.70 511.04 192.24 507.74 197.49 503.91 C 193.40 506.94 190.55 509.11 190.04 509.60 C 189.22 510.38 189.05 511.00 189.66 511.00 C 190.26 511.00 191.32 510.33 192.00 509.50 C 192.68 508.67 194.06 508.00 195.06 508.00 C 196.06 508.00 197.16 507.54 197.51 506.98 C 197.86 506.43 201.37 503.78 205.32 501.11 C 209.27 498.44 213.36 495.29 214.40 494.13 C 215.45 492.96 216.67 492.00 217.11 492.00 C 218.29 492.00 229.00 483.85 229.00 482.95 C 229.00 482.54 230.36 481.72 232.01 481.15 C 233.67 480.57 235.29 479.40 235.62 478.55 C 236.38 476.57 240.61 476.53 241.36 478.50 C 241.68 479.33 242.74 480.00 243.72 480.00 C 244.70 480.00 247.43 482.25 249.80 484.99 C 252.16 487.74 255.20 490.26 256.55 490.60 C 257.90 490.94 259.00 491.64 259.00 492.16 C 259.00 493.66 265.56 500.00 267.12 500.00 C 267.90 500.00 270.55 501.92 273.02 504.26 C 278.96 509.91 286.08 515.54 288.25 516.31 C 289.21 516.66 290.00 517.43 290.00 518.03 C 290.00 518.63 290.45 518.84 291.00 518.50 C 291.55 518.16 292.00 518.60 292.00 519.47 C 292.00 520.35 292.63 521.30 293.40 521.60 C 294.17 521.90 296.98 524.13 299.63 526.57 C 302.28 529.01 304.76 531.00 305.13 531.00 C 305.50 531.00 307.36 532.46 309.28 534.25 C 313.86 538.54 315.16 539.44 317.21 539.79 C 319.21 540.12 327.00 535.46 327.00 533.94 C 327.00 533.37 328.46 532.27 330.25 531.49 C 333.99 529.87 346.07 520.63 347.28 518.46 C 347.73 517.66 348.64 516.99 349.30 516.97 C 350.99 516.92 354.48 513.85 355.93 511.12 C 356.61 509.86 358.63 508.22 360.43 507.46 C 362.23 506.71 364.45 504.96 365.36 503.58 C 366.46 501.89 367.55 501.27 368.67 501.70 C 369.70 502.10 370.08 501.94 369.68 501.28 C 368.92 500.06 371.35 497.69 372.34 498.68 C 372.70 499.04 373.00 498.81 373.00 498.17 C 373.00 497.52 373.56 496.98 374.25 496.96 C 374.94 496.94 377.98 494.93 381.00 492.49 C 384.02 490.06 388.96 486.37 391.97 484.29 C 394.99 482.21 399.93 478.03 402.96 475.00 C 405.99 471.98 408.92 469.46 409.48 469.42 C 411.72 469.24 415.99 466.60 416.48 465.10 C 416.76 464.22 418.23 462.71 419.75 461.75 C 424.77 458.55 430.71 454.07 433.98 451.02 C 435.76 449.36 437.57 448.00 438.01 448.00 C 438.45 448.00 440.09 446.44 441.65 444.54 C 443.22 442.64 445.14 440.95 445.93 440.79 C 447.58 440.45 450.60 438.26 452.87 435.75 C 453.73 434.79 454.97 434.00 455.60 434.00 C 456.24 434.00 458.44 431.95 460.50 429.44 C 462.55 426.93 464.79 425.09 465.48 425.35 C 466.79 425.86 479.00 416.40 479.00 414.88 C 479.00 414.40 479.45 414.00 480.00 414.00 C 480.55 414.00 481.87 413.21 482.93 412.25 C 483.99 411.29 487.10 408.94 489.85 407.03 C 492.60 405.12 494.63 403.21 494.36 402.78 C 494.10 402.36 495.14 401.44 496.66 400.75 C 498.19 400.06 500.97 397.81 502.84 395.75 C 504.70 393.69 506.86 392.00 507.62 392.00 C 508.38 392.00 509.00 391.55 509.00 391.00 C 509.00 390.45 509.57 390.00 510.26 390.00 C 510.95 390.00 512.08 389.10 512.77 388.00 C 513.45 386.90 514.74 386.00 515.61 386.00 C 516.49 386.00 519.03 384.56 521.24 382.81 L 525.27 379.62 L 527.05 381.81 C 528.02 383.01 529.24 384.00 529.76 384.00 C 530.27 384.00 531.50 384.90 532.50 386.00 C 533.50 387.10 534.99 388.00 535.82 388.00 C 536.65 388.00 537.07 388.27 536.74 388.59 C 535.77 389.56 541.16 394.98 544.81 396.71 C 546.66 397.59 548.43 399.03 548.74 399.91 C 549.49 402.07 555.14 408.00 556.45 408.00 C 557.03 408.00 560.39 411.18 563.92 415.07 C 567.45 418.95 572.06 423.01 574.17 424.09 C 576.28 425.16 578.00 426.48 578.00 427.01 C 578.00 428.68 581.35 432.04 585.18 434.20 C 587.20 435.35 589.11 437.29 589.42 438.52 C 589.91 440.51 594.36 444.41 596.20 444.47 C 596.58 444.49 600.43 448.10 604.76 452.50 C 617.05 465.01 624.43 472.01 625.30 472.01 C 625.74 472.00 629.11 475.15 632.78 479.00 C 636.45 482.85 640.27 486.00 641.26 486.00 C 642.25 486.00 643.34 486.79 643.68 487.75 C 644.55 490.23 654.72 500.00 656.43 500.00 C 657.22 500.00 658.13 500.84 658.46 501.87 C 658.79 502.90 661.18 505.66 663.78 508.00 C 666.37 510.35 673.29 516.71 679.15 522.13 C 685.01 527.56 690.06 532.00 690.38 532.00 C 690.70 532.00 695.73 536.72 701.57 542.50 C 707.41 548.28 712.83 553.00 713.62 553.00 C 714.41 553.00 715.47 554.11 715.99 555.47 C 716.52 556.86 718.44 558.58 720.38 559.39 C 722.28 560.18 724.38 561.88 725.04 563.17 C 726.79 566.56 731.17 571.01 732.15 570.41 C 732.62 570.12 733.01 570.70 733.02 571.69 C 733.35 609.15 732.73 686.67 732.10 687.30 C 730.91 688.49 727.81 684.95 722.93 676.88 C 720.68 673.17 717.76 669.42 716.43 668.54 C 715.09 667.67 713.99 666.40 713.98 665.73 C 713.97 665.05 713.08 663.38 712.00 662.00 C 708.90 658.04 709.46 657.01 714.75 656.88 C 718.99 656.78 719.18 656.68 716.50 656.00 C 713.65 655.28 713.71 655.23 717.64 655.12 C 720.01 655.05 722.00 654.45 722.28 653.71 C 722.87 652.18 719.56 644.95 717.62 643.49 C 716.88 642.93 714.88 639.71 713.17 636.34 C 711.47 632.96 708.59 628.99 706.79 627.51 C 704.68 625.79 703.95 624.65 704.76 624.33 C 705.45 624.05 705.76 623.42 705.45 622.91 C 705.14 622.41 706.40 622.00 708.25 622.00 C 710.10 622.00 712.43 621.41 713.42 620.68 C 715.12 619.44 715.04 619.05 711.86 613.64 C 710.01 610.49 707.56 606.25 706.41 604.21 C 702.48 597.21 698.04 590.50 698.00 591.50 C 697.98 592.05 697.55 591.84 697.04 591.03 C 696.02 589.41 697.45 587.00 699.43 587.00 C 700.08 587.00 701.39 586.44 702.33 585.75 C 703.37 584.99 703.33 584.70 701.46 584.71 C 702.40 584.52 703.09 584.30 703.30 584.09 C 703.72 583.67 700.67 577.91 696.93 571.47 C 700.27 576.97 703.05 581.33 703.63 581.95 C 706.27 584.80 703.26 577.10 699.55 571.51 C 697.60 568.57 696.00 565.32 696.00 564.29 C 696.00 563.27 694.09 560.37 691.75 557.85 C 689.41 555.33 687.02 552.45 686.43 551.45 C 685.42 549.72 685.26 549.74 683.15 551.85 C 681.93 553.07 679.98 555.89 678.82 558.12 C 677.66 560.35 676.10 562.41 675.36 562.69 C 674.62 562.98 674.25 563.59 674.54 564.06 C 674.83 564.53 673.48 566.68 671.53 568.83 C 669.59 570.98 668.00 573.49 668.00 574.40 C 668.00 575.32 667.38 576.30 666.61 576.60 C 665.01 577.21 663.77 582.24 664.65 584.53 C 665.30 586.23 666.27 585.74 666.59 583.56 C 666.75 582.50 671.46 574.31 676.10 566.68 C 671.26 574.80 666.30 583.68 666.61 584.18 C 666.89 584.63 669.34 585.00 672.06 585.00 C 673.30 585.00 674.44 585.04 675.31 585.11 C 674.72 585.07 674.01 585.06 673.25 585.08 C 671.19 585.12 670.06 585.38 670.75 585.66 C 671.44 585.94 672.00 586.97 672.00 587.96 C 672.00 590.37 669.41 596.45 667.62 598.24 C 666.83 599.03 664.69 602.11 662.88 605.09 C 661.06 608.06 658.99 611.09 658.29 611.82 C 657.58 612.55 657.00 613.73 657.00 614.45 C 657.00 615.17 656.36 616.29 655.57 616.94 C 653.71 618.49 653.98 621.97 655.96 622.10 C 656.81 622.16 659.02 622.12 660.88 622.01 L 664.26 621.82 L 663.54 625.63 C 663.15 627.72 661.97 630.04 660.91 630.77 C 659.86 631.51 659.00 632.69 659.00 633.40 C 659.00 634.11 658.05 635.55 656.88 636.60 C 655.72 637.64 653.36 640.53 651.63 643.00 C 645.59 651.69 644.57 655.00 647.94 655.00 C 649.01 655.00 650.16 655.45 650.50 656.00 C 650.84 656.55 653.12 657.00 655.56 657.00 C 658.00 657.00 660.00 657.20 660.00 657.45 C 660.00 658.69 654.70 667.63 653.05 669.17 C 652.01 670.14 650.87 671.85 650.51 672.97 C 650.16 674.08 649.21 675.00 648.40 675.00 C 646.98 675.00 642.70 670.65 638.40 664.86 C 637.25 663.30 636.09 662.25 635.82 662.51 C 635.55 662.78 634.70 661.76 633.92 660.25 C 633.14 658.74 631.83 656.95 631.00 656.28 C 630.17 655.61 629.95 655.04 630.50 655.02 C 631.17 654.99 631.17 654.72 630.50 654.23 C 629.95 653.83 628.69 652.04 627.69 650.25 L 625.89 647.00 L 633.79 647.00 C 640.27 647.00 642.00 646.66 643.40 645.11 C 644.93 643.42 644.97 642.86 643.71 639.86 C 641.31 634.14 626.32 611.41 622.64 607.92 C 619.95 605.36 621.44 604.00 626.94 604.00 C 631.47 604.00 633.84 602.80 633.82 600.50 C 633.81 598.28 630.80 592.41 628.95 590.99 C 627.86 590.15 626.77 588.41 626.52 587.11 C 625.98 584.28 624.02 581.17 620.36 577.34 L 617.65 574.50 L 619.69 578.00 C 620.82 579.92 624.05 585.45 626.87 590.28 C 629.69 595.11 632.00 599.50 632.00 600.03 C 632.00 600.04 632.00 600.05 632.00 600.06 C 631.84 599.30 626.32 589.41 619.59 577.84 L 614.94 569.85 C 616.44 572.26 617.61 573.66 617.79 573.13 C 618.24 571.79 616.09 565.83 614.85 564.97 C 614.43 564.68 613.51 562.65 612.80 560.47 C 612.00 558.03 611.23 556.86 609.97 556.38 L 614.09 556.21 C 618.14 556.03 619.99 555.77 620.67 555.15 C 620.42 556.17 620.56 557.00 620.98 557.00 C 622.44 557.00 622.72 552.08 621.40 549.78 C 620.67 548.52 619.75 546.83 619.35 546.00 C 617.33 541.87 610.76 532.52 609.03 531.31 C 607.95 530.55 610.25 535.14 614.14 541.52 C 616.09 544.71 617.62 547.39 618.71 549.52 C 613.01 539.10 598.55 515.98 597.58 516.30 C 597.12 516.45 595.20 519.23 592.64 523.22 C 592.91 522.78 593.20 522.30 593.50 521.78 C 595.15 518.95 597.01 516.47 597.63 516.27 C 598.25 516.07 600.48 518.86 602.59 522.46 C 604.69 526.06 607.05 529.00 607.83 529.00 C 608.91 529.00 608.98 528.68 608.12 527.65 C 607.50 526.90 605.84 524.09 604.42 521.40 C 601.03 514.96 600.01 514.04 596.88 514.66 C 594.21 515.19 589.63 521.67 589.39 525.25 C 589.24 527.47 589.88 527.43 591.58 524.90 C 590.46 526.68 589.24 528.65 587.99 530.69 C 587.91 529.64 583.25 532.92 582.65 534.46 C 582.37 535.20 582.44 536.11 582.81 536.47 C 583.18 536.84 584.70 535.51 586.00 534.00 C 580.05 543.91 574.13 554.40 574.49 554.99 C 574.84 555.55 578.02 556.00 581.56 556.00 C 583.26 556.00 584.82 556.06 585.98 556.15 C 585.90 556.16 585.83 556.17 585.75 556.18 C 584.14 556.41 583.41 557.28 583.18 559.25 C 583.01 560.76 582.50 562.00 582.04 562.00 C 581.59 562.00 580.95 563.05 580.63 564.32 C 580.31 565.60 578.46 568.72 576.53 571.26 C 574.59 573.80 573.00 576.34 573.00 576.91 C 573.00 577.93 569.69 585.13 567.91 588.00 C 564.59 593.32 562.89 595.52 562.01 595.62 C 561.45 595.69 560.76 595.81 560.46 595.88 C 560.37 595.90 560.33 596.02 560.35 596.22 C 559.82 595.24 559.17 593.97 558.38 592.36 C 559.23 593.85 559.82 594.32 560.15 593.79 C 561.25 592.06 561.22 589.00 560.11 589.00 C 559.62 589.00 557.12 584.79 554.55 579.65 C 549.24 569.02 547.53 567.90 537.86 568.69 C 534.91 568.93 529.05 569.08 524.84 569.02 C 520.62 568.96 516.93 569.30 516.64 569.77 C 516.35 570.24 502.70 570.53 486.31 570.41 C 455.83 570.19 453.00 570.34 453.00 572.21 C 453.00 572.29 453.37 572.36 454.05 572.42 C 452.54 572.41 451.05 572.40 449.60 572.39 C 450.38 572.00 449.25 571.25 446.04 570.25 C 443.40 569.43 439.13 569.23 433.19 569.65 C 426.99 570.09 424.08 569.93 423.59 569.14 C 422.72 567.74 416.35 567.63 415.50 569.00 C 415.16 569.55 413.98 570.00 412.88 570.00 C 411.78 570.00 411.14 570.41 411.45 570.91 C 411.76 571.42 411.64 571.98 411.19 572.16 C 410.73 572.35 407.50 578.35 404.00 585.50 C 400.50 592.65 396.79 599.74 395.75 601.25 C 394.71 602.76 394.09 604.00 394.37 604.00 C 394.86 604.00 389.83 615.20 382.38 630.68 C 380.48 634.63 378.52 638.00 378.02 638.18 C 377.53 638.36 376.91 639.62 376.66 641.00 C 375.78 645.76 375.49 646.44 373.25 648.95 C 371.18 651.27 370.60 652.53 371.25 653.29 C 371.39 653.46 370.68 654.84 369.68 656.37 C 368.68 657.90 367.70 659.90 367.51 660.82 C 367.33 661.75 366.84 663.35 366.43 664.39 Z M 572.67 555.33 C 573.72 556.39 575.18 556.11 574.49 554.98 C 574.14 554.42 575.24 551.71 576.93 548.96 C 580.46 543.22 580.52 543.00 578.50 543.00 C 577.67 543.00 577.00 543.70 577.00 544.55 C 577.00 545.40 575.88 547.14 574.50 548.41 C 572.11 550.62 571.24 553.91 572.67 555.33 Z M 572.00 607.58 C 572.00 608.46 568.09 607.95 567.50 607.00 C 566.49 605.37 567.94 604.00 570.67 604.00 C 572.58 604.00 573.06 604.39 572.61 605.58 C 572.27 606.45 572.00 607.35 572.00 607.58 Z M 154.02 600.86 C 152.72 600.68 151.71 600.34 151.48 599.96 C 151.12 599.39 153.13 595.09 155.94 590.41 C 158.75 585.72 160.74 581.39 160.37 580.79 C 159.98 580.16 160.15 579.97 160.77 580.36 C 161.39 580.74 162.82 579.30 164.12 577.00 C 165.37 574.78 166.85 573.12 167.42 573.31 C 167.43 573.31 167.44 573.31 167.45 573.32 C 165.90 573.05 150.51 598.92 151.60 599.98 C 151.91 600.29 152.85 600.62 154.02 600.86 Z M 556.43 588.29 C 556.52 588.50 556.61 588.71 556.70 588.91 C 556.22 587.91 555.70 586.82 555.14 585.64 L 550.61 576.17 C 551.28 577.26 551.92 578.00 552.24 578.00 C 552.72 578.00 552.84 578.45 552.50 579.00 C 552.16 579.55 552.36 580.00 552.94 580.00 C 553.52 580.00 553.89 580.34 553.77 580.75 C 553.64 581.16 554.84 584.56 556.43 588.29 Z M 413.50 571.50 L 424.50 571.69 C 429.16 571.77 435.09 572.00 439.40 572.26 C 435.24 572.19 431.55 572.10 428.50 572.00 Z M 342.44 622.47 C 342.70 623.64 345.31 627.36 352.68 638.15 C 357.80 645.66 362.00 652.50 362.00 653.36 C 361.96 652.45 357.46 645.19 351.96 637.16 L 341.93 622.50 Z M 634.56 663.38 C 628.71 655.39 623.03 647.25 622.39 645.57 C 622.71 646.40 628.13 654.33 634.56 663.38 Z M 694.15 585.42 C 693.68 586.06 694.24 587.51 696.14 590.90 L 692.99 585.50 Z M 209.96 625.37 C 204.60 633.37 200.35 640.02 199.27 642.09 C 199.65 640.95 204.37 633.57 209.96 625.37 Z M 199.35 643.16 C 200.36 643.74 203.66 644.05 210.04 644.22 L 221.08 644.50 L 209.93 644.22 C 202.47 644.03 199.98 643.88 199.35 643.16 Z M 684.67 553.37 C 684.87 553.13 685.01 553.00 685.07 553.00 C 685.38 553.00 687.38 555.92 690.07 560.20 C 687.41 556.04 685.30 553.07 684.89 553.20 C 684.84 553.22 684.76 553.28 684.67 553.37 Z M 702.00 600.95 C 702.53 601.84 703.08 602.78 703.65 603.77 C 708.24 611.61 712.00 618.68 712.00 619.47 L 712.00 619.48 C 711.97 618.67 707.70 610.72 702.49 601.79 Z M 607.94 557.81 C 608.01 557.92 608.08 558.04 608.16 558.16 C 608.96 559.39 611.21 563.28 613.26 566.96 Z M 254.49 530.96 C 255.42 532.52 256.29 533.96 257.08 535.27 C 255.24 532.29 253.41 529.27 251.91 526.75 C 251.18 525.52 250.45 524.33 249.76 523.23 C 251.05 525.25 252.60 527.79 254.49 530.96 Z M 184.69 618.94 C 185.55 620.38 186.53 622.03 187.66 623.93 C 189.44 626.91 190.67 629.72 190.39 630.18 C 190.67 629.72 189.29 626.69 187.33 623.43 C 186.54 622.12 185.62 620.55 184.69 618.94 Z M 215.35 590.35 C 212.29 595.66 210.00 599.86 210.00 600.20 C 210.00 599.77 212.39 595.36 215.35 590.35 Z M 587.99 556.52 C 588.00 556.53 588.00 556.54 588.00 556.55 C 588.00 556.91 582.26 566.97 576.34 577.16 C 582.13 567.18 587.74 557.32 587.99 556.52 Z M 543.12 571.09 L 547.91 570.75 L 547.96 570.85 Z M 158.48 604.04 C 158.50 604.00 158.52 603.97 158.53 603.94 L 159.80 601.49 L 159.95 601.50 Z M 238.60 474.32 C 238.61 474.32 238.61 474.32 238.61 474.32 C 239.22 474.08 252.99 484.77 270.56 499.06 C 253.04 484.81 239.28 474.14 238.60 474.32 Z M 184.18 660.50 L 188.60 666.75 C 189.78 668.42 191.01 670.15 192.08 671.67 C 191.52 670.89 190.93 670.08 190.34 669.23 L 184.17 660.50 Z M 267.99 644.50 L 268.01 644.50 L 274.40 653.56 Z M 153.85 631.50 L 148.88 638.84 L 153.83 631.50 L 153.81 631.50 Z M 175.93 586.00 C 179.55 592.07 182.95 598.23 182.97 599.25 C 182.95 598.25 179.55 592.08 175.93 586.00 Z M 175.25 601.69 C 175.57 601.13 176.76 601.00 179.00 601.00 C 176.80 601.00 175.60 601.16 175.25 601.69 Z M 196.95 677.94 C 196.97 677.95 196.98 677.95 197.00 677.95 C 197.21 677.96 200.63 673.38 205.19 667.00 C 200.63 673.39 197.21 677.97 197.00 677.97 C 196.99 677.97 196.97 677.96 196.95 677.94 Z M 228.90 481.06 C 231.99 478.85 234.55 477.04 236.27 475.85 C 234.54 477.05 231.96 478.87 228.90 481.06 Z M 211.16 600.61 C 210.42 600.49 210.00 600.35 210.00 600.20 C 210.00 600.33 210.42 600.48 211.16 600.61 Z M 317.04 586.81 C 317.49 587.41 317.35 588.44 316.57 590.23 C 317.35 588.44 317.49 587.41 317.04 586.81 C 316.91 586.63 316.72 586.49 316.48 586.38 C 316.72 586.49 316.91 586.63 317.04 586.81 Z M 607.21 556.50 C 607.23 556.56 607.26 556.63 607.30 556.71 L 607.17 556.50 Z" stroke-linecap="round"></path>
</g>
		<g id="bef56c34-dd6b-44e2-90ea-8075cc90f861-child-3">
<path style="stroke: rgb(193,193,193); stroke-width: 0; stroke-dasharray: none; stroke-linecap: butt; stroke-dashoffset: 0; stroke-linejoin: miter; stroke-miterlimit: 4; fill: rgb(64,129,63); fill-rule: nonzero; opacity: 1;" transform="matrix(1.36289 0 0 1.36289 526.666674 526.666677) matrix(1 0 0 1 -1 -75.418588)  translate(-429.5, -533.581412)" d="M 694.15 585.42 L 697.74 585.19 C 699.10 585.10 700.43 584.92 701.46 584.71 C 703.33 584.70 703.37 584.99 702.33 585.75 C 701.39 586.44 700.08 587.00 699.43 587.00 C 697.45 587.00 696.02 589.41 697.04 591.03 C 697.55 591.84 697.98 592.05 698.00 591.50 C 698.04 590.50 702.48 597.21 706.41 604.21 C 707.56 606.25 710.01 610.49 711.86 613.64 C 715.04 619.05 715.12 619.44 713.42 620.68 C 712.43 621.41 710.10 622.00 708.25 622.00 C 706.40 622.00 705.14 622.41 705.45 622.91 C 705.76 623.42 705.45 624.05 704.76 624.33 C 703.95 624.65 704.68 625.79 706.79 627.51 C 708.59 628.99 711.47 632.96 713.17 636.34 C 714.88 639.71 716.88 642.93 717.62 643.49 C 719.56 644.95 722.87 652.18 722.28 653.71 C 722.00 654.45 720.01 655.05 717.64 655.12 C 713.71 655.23 713.65 655.28 716.50 656.00 C 719.18 656.68 718.99 656.78 714.75 656.88 C 709.46 657.01 708.90 658.04 712.00 662.00 C 713.08 663.38 713.97 665.05 713.98 665.73 C 713.99 666.40 715.09 667.67 716.43 668.54 C 717.76 669.42 720.68 673.17 722.93 676.88 C 727.81 684.95 730.91 688.49 732.10 687.30 C 732.73 686.67 733.35 609.15 733.02 571.69 C 733.01 570.70 732.62 570.12 732.15 570.41 C 731.17 571.01 726.79 566.56 725.04 563.17 C 724.38 561.88 722.28 560.18 720.38 559.39 C 718.44 558.58 716.52 556.86 715.99 555.47 C 715.47 554.11 714.41 553.00 713.62 553.00 C 712.83 553.00 707.41 548.28 701.57 542.50 C 695.73 536.72 690.70 532.00 690.38 532.00 C 690.06 532.00 685.01 527.56 679.15 522.13 C 673.29 516.71 666.37 510.35 663.78 508.00 C 661.18 505.66 658.79 502.90 658.46 501.87 C 658.13 500.84 657.22 500.00 656.43 500.00 C 654.72 500.00 644.55 490.23 643.68 487.75 C 643.34 486.79 642.25 486.00 641.26 486.00 C 640.27 486.00 636.45 482.85 632.78 479.00 C 629.11 475.15 625.74 472.00 625.30 472.01 C 624.43 472.01 617.05 465.01 604.76 452.50 C 600.43 448.10 596.58 444.49 596.20 444.47 C 594.36 444.41 589.91 440.51 589.42 438.52 C 589.11 437.29 587.20 435.35 585.18 434.20 C 581.35 432.04 578.00 428.68 578.00 427.01 C 578.00 426.48 576.28 425.16 574.17 424.09 C 572.06 423.01 567.45 418.95 563.92 415.07 C 560.39 411.18 557.03 408.00 556.45 408.00 C 555.14 408.00 549.49 402.07 548.74 399.91 C 548.43 399.03 546.66 397.59 544.81 396.71 C 541.16 394.98 535.77 389.56 536.74 388.59 C 537.07 388.27 536.65 388.00 535.82 388.00 C 534.99 388.00 533.50 387.10 532.50 386.00 C 531.50 384.90 530.27 384.00 529.76 384.00 C 529.24 384.00 528.02 383.01 527.05 381.81 L 525.27 379.62 L 521.24 382.81 C 519.03 384.56 516.49 386.00 515.61 386.00 C 514.74 386.00 513.45 386.90 512.77 388.00 C 512.08 389.10 510.95 390.00 510.26 390.00 C 509.57 390.00 509.00 390.45 509.00 391.00 C 509.00 391.55 508.38 392.00 507.62 392.00 C 506.86 392.00 504.70 393.69 502.84 395.75 C 500.97 397.81 498.19 400.06 496.66 400.75 C 495.14 401.44 494.10 402.36 494.36 402.78 C 494.63 403.21 492.60 405.12 489.85 407.03 C 487.10 408.94 483.99 411.29 482.93 412.25 C 481.87 413.21 480.55 414.00 480.00 414.00 C 479.45 414.00 479.00 414.40 479.00 414.88 C 479.00 416.40 466.79 425.86 465.48 425.35 C 464.79 425.09 462.55 426.93 460.50 429.44 C 458.44 431.95 456.24 434.00 455.60 434.00 C 454.97 434.00 453.73 434.79 452.87 435.75 C 450.60 438.26 447.58 440.45 445.93 440.79 C 445.14 440.95 443.22 442.64 441.65 444.54 C 440.09 446.44 438.45 448.00 438.01 448.00 C 437.57 448.00 435.76 449.36 433.98 451.02 C 430.71 454.07 424.77 458.55 419.75 461.75 C 418.23 462.71 416.76 464.22 416.48 465.10 C 415.99 466.60 411.72 469.24 409.48 469.42 C 408.92 469.46 405.99 471.98 402.96 475.00 C 399.93 478.03 394.99 482.21 391.97 484.29 C 388.96 486.37 384.02 490.06 381.00 492.49 C 377.98 494.93 374.94 496.94 374.25 496.96 C 373.56 496.98 373.00 497.52 373.00 498.17 C 373.00 498.81 372.70 499.04 372.34 498.68 C 371.35 497.69 368.92 500.06 369.68 501.28 C 370.08 501.94 369.70 502.10 368.67 501.70 C 367.55 501.27 366.46 501.89 365.36 503.58 C 364.45 504.96 362.23 506.71 360.43 507.46 C 358.63 508.22 356.61 509.86 355.93 511.12 C 354.48 513.85 350.99 516.92 349.30 516.97 C 348.64 516.99 347.73 517.66 347.28 518.46 C 346.07 520.63 333.99 529.87 330.25 531.49 C 328.46 532.27 327.00 533.37 327.00 533.94 C 327.00 535.46 319.21 540.12 317.21 539.79 C 315.16 539.44 313.86 538.54 309.28 534.25 C 307.36 532.46 305.50 531.00 305.13 531.00 C 304.76 531.00 302.28 529.01 299.63 526.57 C 296.98 524.13 294.17 521.90 293.40 521.60 C 292.63 521.30 292.00 520.35 292.00 519.47 C 292.00 518.60 291.55 518.16 291.00 518.50 C 290.45 518.84 290.00 518.63 290.00 518.03 C 290.00 517.43 289.21 516.66 288.25 516.31 C 286.08 515.54 278.96 509.91 273.02 504.26 C 270.55 501.92 267.90 500.00 267.12 500.00 C 265.56 500.00 259.00 493.66 259.00 492.16 C 259.00 491.64 257.90 490.94 256.55 490.60 C 255.20 490.26 252.16 487.74 249.80 484.99 C 247.43 482.25 244.70 480.00 243.72 480.00 C 242.74 480.00 241.68 479.33 241.36 478.50 C 240.61 476.53 236.38 476.57 235.62 478.55 C 235.29 479.40 233.67 480.57 232.01 481.15 C 230.36 481.72 229.00 482.54 229.00 482.95 C 229.00 483.85 218.29 492.00 217.11 492.00 C 216.67 492.00 215.45 492.96 214.40 494.13 C 213.36 495.29 209.27 498.44 205.32 501.11 C 201.37 503.78 197.86 506.43 197.51 506.98 C 197.16 507.54 196.06 508.00 195.06 508.00 C 194.06 508.00 192.68 508.67 192.00 509.50 C 191.32 510.33 190.26 511.00 189.66 511.00 C 189.05 511.00 189.22 510.38 190.04 509.60 C 190.55 509.11 193.40 506.95 197.49 503.92 L 197.49 503.91 C 203.44 499.57 210.31 494.56 216.42 490.09 C 220.98 486.76 225.30 483.64 228.90 481.06 L 229.18 480.86 C 232.14 478.74 234.59 477.01 236.26 475.86 L 236.27 475.85 C 237.57 474.95 238.40 474.41 238.60 474.32 C 239.28 474.14 253.04 484.81 270.56 499.06 C 271.74 500.02 272.93 500.99 274.14 501.98 C 275.42 503.03 276.72 504.09 278.04 505.17 C 307.11 529.04 316.83 536.49 318.85 536.47 C 320.82 536.45 340.76 521.32 396.50 477.54 C 437.75 445.14 481.85 410.54 494.50 400.65 C 507.15 390.76 519.15 381.35 521.18 379.73 C 523.20 378.11 525.41 376.97 526.08 377.19 C 526.76 377.42 574.25 421.01 631.61 474.05 L 735.90 570.50 L 736.00 690.00 L 732.57 690.00 C 729.30 690.00 728.68 689.34 718.32 674.80 C 717.76 674.01 717.22 673.26 716.71 672.53 C 707.57 659.70 705.24 656.44 706.01 655.35 C 706.31 654.92 707.11 654.83 708.16 654.62 C 709.86 654.28 713.44 654.00 716.12 654.00 C 718.81 654.00 721.00 653.56 721.00 653.02 C 721.00 652.48 716.44 645.17 710.87 636.77 L 700.75 621.50 L 706.37 621.20 C 710.40 620.99 712.00 620.50 712.00 619.49 L 712.00 619.48 L 712.00 619.47 C 712.00 618.68 708.24 611.61 703.65 603.77 C 703.08 602.78 702.53 601.84 702.00 600.95 L 696.14 590.90 C 694.24 587.51 693.68 586.06 694.15 585.42 Z M 632.00 600.09 C 632.00 600.08 632.00 600.07 632.00 600.06 C 632.00 600.05 632.00 600.04 632.00 600.03 C 632.00 599.50 629.69 595.11 626.87 590.28 C 624.05 585.45 620.82 579.92 619.69 578.00 L 617.65 574.50 L 620.36 577.34 C 624.02 581.17 625.98 584.28 626.52 587.11 C 626.77 588.41 627.86 590.15 628.95 590.99 C 630.80 592.41 633.81 598.28 633.82 600.50 C 633.84 602.80 631.47 604.00 626.94 604.00 C 621.44 604.00 619.95 605.36 622.64 607.92 C 626.32 611.41 641.31 634.14 643.71 639.86 C 644.97 642.86 644.93 643.42 643.40 645.11 C 642.00 646.66 640.27 647.00 633.79 647.00 L 625.89 647.00 L 627.69 650.25 C 628.69 652.04 629.95 653.83 630.50 654.23 C 631.17 654.72 631.17 654.99 630.50 655.02 C 629.95 655.04 630.17 655.61 631.00 656.28 C 631.83 656.95 633.14 658.74 633.92 660.25 C 634.70 661.76 635.55 662.78 635.82 662.51 C 636.09 662.25 637.25 663.30 638.40 664.86 C 642.70 670.65 646.98 675.00 648.40 675.00 C 649.21 675.00 650.16 674.08 650.51 672.97 C 650.87 671.85 652.01 670.14 653.05 669.17 C 654.70 667.63 660.00 658.69 660.00 657.45 C 660.00 657.20 658.00 657.00 655.56 657.00 C 653.12 657.00 650.84 656.55 650.50 656.00 C 650.16 655.45 649.01 655.00 647.94 655.00 C 644.57 655.00 645.59 651.69 651.63 643.00 C 653.36 640.53 655.72 637.64 656.88 636.60 C 658.05 635.55 659.00 634.11 659.00 633.40 C 659.00 632.69 659.86 631.51 660.91 630.77 C 661.97 630.04 663.15 627.72 663.54 625.63 L 664.26 621.82 L 660.88 622.01 C 659.02 622.12 656.81 622.16 655.96 622.10 C 653.98 621.97 653.71 618.49 655.57 616.94 C 656.36 616.29 657.00 615.17 657.00 614.45 C 657.00 613.73 657.58 612.55 658.29 611.82 C 658.99 611.09 661.06 608.06 662.88 605.09 C 664.69 602.11 666.83 599.03 667.62 598.24 C 669.41 596.45 672.00 590.37 672.00 587.96 C 672.00 586.97 671.44 585.94 670.75 585.66 C 670.06 585.38 671.19 585.12 673.25 585.08 C 674.01 585.06 674.72 585.07 675.31 585.11 C 676.35 585.19 677.00 585.30 677.00 585.43 C 677.00 585.66 672.69 593.30 667.42 602.40 C 662.16 611.50 658.13 619.41 658.48 619.97 C 658.83 620.54 661.59 621.00 664.61 621.00 L 670.09 621.00 L 659.55 636.41 C 653.75 644.88 649.00 652.31 649.00 652.91 C 649.00 653.58 651.41 654.01 655.25 654.01 C 655.64 654.01 656.01 654.01 656.37 654.02 C 660.99 654.02 663.53 654.02 664.16 655.12 C 664.92 656.46 662.83 659.43 658.18 666.03 C 657.88 666.45 657.57 666.89 657.25 667.34 C 652.55 674.03 648.37 679.88 647.96 680.34 C 647.61 680.74 640.98 672.15 634.56 663.37 C 628.13 654.33 622.71 646.40 622.39 645.57 C 621.86 644.21 623.17 644.00 632.33 644.00 C 638.14 644.00 643.10 643.65 643.36 643.23 C 643.62 642.80 637.80 633.46 630.42 622.48 C 623.04 611.49 617.00 602.16 617.00 601.75 C 617.00 601.34 620.38 601.00 624.50 601.00 C 628.62 601.00 632.00 600.59 632.00 600.09 Z M 123.00 558.41 L 127.75 554.83 L 127.88 554.73 L 132.75 551.16 C 178.53 517.62 187.54 511.21 187.82 512.00 C 187.99 512.50 186.64 514.25 184.82 515.90 C 181.75 518.66 180.44 519.46 174.28 522.28 C 173.07 522.84 172.28 523.65 172.55 524.07 C 172.81 524.50 170.93 525.89 168.36 527.17 C 165.80 528.45 163.21 530.32 162.60 531.32 C 161.50 533.16 153.54 539.00 152.16 539.00 C 151.75 539.00 149.41 540.84 146.96 543.10 C 144.51 545.35 139.57 549.17 136.00 551.60 C 132.43 554.02 128.49 556.86 127.25 557.91 L 125.00 559.82 L 125.00 623.41 C 125.00 625.61 125.00 627.75 125.00 629.81 C 125.00 675.22 124.99 686.61 127.05 687.00 C 127.74 687.13 128.66 686.02 129.89 684.54 C 130.06 684.34 130.23 684.14 130.41 683.92 C 131.83 682.23 133.00 680.39 133.00 679.82 C 133.00 679.26 134.24 677.56 135.75 676.04 C 140.38 671.39 145.01 664.20 144.40 662.61 C 144.08 661.77 142.21 660.94 140.16 660.72 C 138.07 660.50 139.42 660.26 143.33 660.17 C 147.07 660.08 149.98 660.39 149.84 660.87 L 149.83 660.87 L 149.83 660.88 C 149.65 661.36 145.00 668.11 139.51 675.88 C 130.15 689.10 129.31 690.00 126.26 690.00 L 123.00 690.00 Z M 276.62 621.66 C 269.65 611.34 264.21 602.47 264.53 601.95 C 264.85 601.43 268.35 601.01 272.31 601.03 C 278.85 601.06 279.32 601.20 277.56 602.53 C 276.49 603.34 273.90 604.00 271.81 604.00 C 266.57 604.00 266.77 606.38 272.50 612.00 C 274.98 614.43 277.00 616.92 277.00 617.53 C 277.00 618.14 279.48 622.20 282.50 626.55 C 285.52 630.89 288.00 634.80 288.00 635.22 C 288.00 635.65 288.92 636.92 290.05 638.05 C 291.48 639.48 291.89 640.76 291.42 642.25 C 290.15 646.27 288.47 647.00 280.57 647.00 C 276.41 647.00 273.00 647.24 273.00 647.54 C 273.00 648.46 277.30 654.27 281.75 659.36 C 284.09 662.03 286.00 664.70 286.00 665.30 C 286.00 667.27 290.48 672.99 292.03 672.99 C 292.87 673.00 294.09 671.61 294.73 669.91 C 295.37 668.21 296.30 667.07 296.80 667.37 C 297.67 667.92 298.56 666.47 300.88 660.70 C 302.65 656.30 302.35 656.00 296.20 656.00 C 293.01 656.00 289.86 655.46 289.20 654.80 C 287.13 652.73 287.78 649.06 290.43 647.85 C 291.77 647.24 293.39 645.46 294.04 643.90 C 294.69 642.34 295.84 640.55 296.61 639.91 C 297.37 639.28 298.00 638.12 298.00 637.34 C 298.00 636.56 299.80 634.05 302.00 631.76 C 305.74 627.86 306.48 626.34 306.07 623.25 C 306.00 622.66 306.67 622.20 307.72 622.05 C 309.65 622.14 311.00 622.35 311.00 622.58 C 311.00 622.90 306.67 629.48 301.37 637.19 C 296.08 644.90 291.69 651.95 291.62 652.85 C 291.52 654.22 292.88 654.59 299.63 655.00 L 307.76 655.50 L 300.13 666.22 C 295.93 672.12 292.05 676.81 291.50 676.64 C 290.95 676.48 285.44 669.18 279.25 660.42 L 274.40 653.56 L 268.01 644.50 L 279.10 644.22 C 289.15 643.96 290.17 643.76 289.75 642.17 C 289.50 641.20 283.59 631.97 276.62 621.66 Z M 366.43 664.39 C 366.84 663.35 367.33 661.75 367.51 660.82 C 367.70 659.90 368.68 657.90 369.68 656.37 C 370.68 654.84 371.39 653.46 371.25 653.29 C 370.60 652.53 371.18 651.27 373.25 648.95 C 375.49 646.44 375.78 645.76 376.66 641.00 C 376.91 639.62 377.53 638.36 378.02 638.18 C 378.52 638.00 380.48 634.63 382.38 630.68 C 389.83 615.20 394.86 604.00 394.37 604.00 C 394.09 604.00 394.71 602.76 395.75 601.25 C 396.79 599.74 400.50 592.65 404.00 585.50 C 407.50 578.35 410.73 572.35 411.19 572.16 C 411.64 571.98 411.76 571.42 411.45 570.91 C 411.14 570.41 411.78 570.00 412.88 570.00 C 413.98 570.00 415.16 569.55 415.50 569.00 C 416.35 567.63 422.72 567.74 423.59 569.14 C 424.08 569.93 426.99 570.09 433.19 569.65 C 439.13 569.23 443.40 569.43 446.04 570.25 C 449.25 571.25 450.38 572.00 449.60 572.39 C 445.98 572.35 442.56 572.31 439.40 572.26 C 435.09 572.00 429.16 571.77 424.50 571.69 L 413.50 571.50 L 410.71 577.00 C 409.18 580.03 403.75 591.28 398.63 602.00 C 386.76 626.91 378.54 644.05 372.91 655.56 C 369.87 661.52 367.53 665.66 367.03 665.82 C 366.06 666.15 365.89 665.74 366.43 664.39 Z M 309.38 603.26 C 309.16 603.63 308.95 604.00 308.74 604.37 C 299.61 620.02 295.61 625.04 301.14 613.83 C 302.86 610.35 304.88 607.14 305.63 606.70 C 306.39 606.26 307.00 604.84 307.00 603.53 C 307.00 602.23 307.46 601.01 308.03 600.82 C 308.59 600.64 310.15 598.11 311.50 595.20 C 313.74 590.37 313.80 589.87 312.22 589.37 C 308.71 588.25 305.74 586.50 305.27 585.26 C 305.00 584.55 305.89 582.52 307.25 580.74 C 308.60 578.96 311.46 574.12 313.60 570.00 C 315.74 565.88 318.28 561.63 319.24 560.57 C 320.19 559.51 321.22 557.90 321.51 556.98 C 321.80 556.06 323.14 554.80 324.49 554.19 C 326.59 553.23 327.16 553.39 328.47 555.26 C 329.31 556.46 330.00 557.02 330.00 556.49 C 330.00 555.97 331.23 557.33 332.73 559.52 C 335.49 563.55 336.61 565.41 340.87 573.10 C 342.17 575.45 343.82 577.96 344.53 578.68 C 347.09 581.24 347.52 587.29 345.17 587.58 C 342.29 587.93 339.01 589.42 339.03 590.36 C 339.05 590.99 339.72 592.37 340.53 593.44 C 341.34 594.51 342.00 596.11 342.00 597.00 C 342.00 597.89 342.81 599.50 343.81 600.56 C 345.67 602.56 346.00 603.24 346.00 605.06 C 346.00 605.64 346.45 605.84 347.00 605.50 C 347.55 605.16 348.00 605.77 348.00 606.86 C 348.00 607.94 348.39 608.98 348.87 609.17 C 349.35 609.35 350.07 610.62 350.48 612.00 C 351.05 613.92 350.93 614.35 349.93 613.02 C 347.94 609.91 344.95 604.93 342.15 600.06 C 334.44 586.63 334.40 586.04 341.25 586.02 C 343.31 586.01 345.00 585.54 345.00 584.97 C 345.00 582.96 327.61 554.96 326.57 555.29 C 325.48 555.63 308.00 583.82 308.00 585.23 C 308.00 585.65 309.76 586.00 311.92 586.00 L 312.07 586.00 C 314.24 586.00 315.76 586.00 316.59 586.44 C 316.55 586.42 316.52 586.40 316.48 586.38 C 316.72 586.49 316.91 586.63 317.04 586.81 C 317.49 587.41 317.35 588.44 316.57 590.23 C 316.54 590.31 316.50 590.39 316.47 590.48 C 316.34 590.75 316.21 591.05 316.05 591.36 C 314.84 593.86 312.71 597.53 309.58 602.91 Z M 209.96 625.37 C 204.37 633.57 199.65 640.95 199.27 642.09 C 199.10 642.42 199.00 642.64 199.00 642.72 C 199.00 642.88 199.12 643.03 199.35 643.16 C 199.98 643.88 202.47 644.03 209.93 644.22 L 221.08 644.50 L 209.29 661.23 C 207.86 663.26 206.48 665.20 205.19 667.00 L 205.17 667.03 C 200.62 673.40 197.21 677.96 197.00 677.95 C 196.98 677.95 196.97 677.95 196.95 677.94 C 196.54 677.67 194.55 675.10 192.08 671.67 C 191.01 670.15 189.78 668.42 188.60 666.75 L 184.18 660.50 L 191.09 660.21 C 191.59 660.18 192.06 660.16 192.51 660.13 C 197.32 660.22 197.01 660.33 193.50 661.24 C 191.30 661.80 189.33 662.41 189.13 662.59 C 188.93 662.76 190.16 664.68 191.88 666.85 C 193.60 669.01 195.00 671.29 195.00 671.89 C 195.00 672.50 196.05 673.00 197.33 673.00 C 198.62 673.00 199.67 672.43 199.67 671.72 C 199.67 669.75 209.34 656.03 210.75 656.02 C 211.44 656.01 212.00 655.20 212.00 654.22 C 212.00 653.24 212.72 651.42 213.60 650.16 C 214.48 648.90 214.93 647.59 214.59 647.25 C 214.25 646.91 211.54 646.75 208.58 646.89 C 203.46 647.12 200.36 646.14 197.25 643.28 C 195.66 641.82 197.39 638.57 202.67 633.11 C 204.47 631.25 205.71 629.33 205.41 628.86 C 205.12 628.39 205.38 628.00 205.99 628.00 C 206.60 628.00 207.79 626.36 208.62 624.36 C 211.72 616.96 221.00 605.14 221.00 608.60 C 221.00 608.81 219.06 611.84 216.14 616.22 L 212.56 621.50 C 211.67 622.81 210.80 624.11 209.96 625.37 Z M 556.43 588.29 C 554.84 584.56 553.64 581.16 553.77 580.75 C 553.89 580.34 553.52 580.00 552.94 580.00 C 552.36 580.00 552.16 579.55 552.50 579.00 C 552.84 578.45 552.72 578.00 552.24 578.00 C 551.92 578.00 551.28 577.26 550.61 576.17 L 548.07 570.84 L 547.96 570.85 L 547.91 570.75 L 543.12 571.09 L 531.78 571.67 C 518.62 572.34 481.97 572.63 454.05 572.42 C 453.37 572.36 453.00 572.29 453.00 572.21 C 453.00 570.34 455.83 570.19 486.31 570.41 C 502.70 570.53 516.35 570.24 516.64 569.77 C 516.93 569.30 520.62 568.96 524.84 569.02 C 529.05 569.08 534.91 568.93 537.86 568.69 C 547.53 567.90 549.24 569.02 554.55 579.65 C 557.12 584.79 559.62 589.00 560.11 589.00 C 561.22 589.00 561.25 592.06 560.15 593.79 C 559.82 594.32 559.23 593.85 558.38 592.36 C 557.88 591.35 557.32 590.20 556.70 588.91 C 556.61 588.71 556.52 588.50 556.43 588.29 Z M 154.02 600.86 C 154.70 601.00 155.47 601.12 156.23 601.18 L 159.80 601.49 L 158.53 603.94 L 158.48 604.04 L 157.45 605.81 C 156.00 608.02 155.00 608.18 155.25 605.81 C 155.45 603.95 155.02 603.50 153.00 603.50 C 146.91 603.50 147.37 598.71 154.49 587.91 C 157.02 584.07 159.34 580.27 159.65 579.47 C 159.96 578.67 160.68 578.30 161.26 578.66 C 161.87 579.04 162.01 578.83 161.61 578.17 C 161.22 577.55 161.96 575.48 163.25 573.58 C 165.39 570.44 165.82 570.23 167.94 571.31 C 169.22 571.96 170.24 572.95 170.20 573.50 C 170.16 574.05 170.91 575.40 171.88 576.50 C 174.60 579.60 177.00 583.78 177.00 585.40 C 177.00 586.21 178.80 588.96 181.00 591.50 C 183.20 594.04 185.00 596.80 185.00 597.63 C 185.00 600.40 182.91 603.18 181.30 602.56 C 179.40 601.83 176.81 603.79 177.59 605.36 C 177.89 605.99 177.44 605.63 176.57 604.56 C 176.02 603.87 175.61 603.31 175.38 602.85 C 175.14 602.34 175.09 601.96 175.25 601.69 C 175.60 601.16 176.80 601.00 179.00 601.00 C 182.16 601.00 182.99 600.63 182.97 599.25 C 182.95 598.25 179.55 592.08 175.93 586.01 L 175.93 586.01 C 172.19 579.73 168.21 573.57 167.47 573.32 C 167.44 573.31 167.43 573.31 167.42 573.31 C 166.85 573.12 165.37 574.78 164.12 577.00 C 162.82 579.30 161.39 580.74 160.77 580.36 C 160.15 579.97 159.98 580.16 160.37 580.79 C 160.74 581.39 158.75 585.72 155.94 590.41 C 153.13 595.09 151.12 599.39 151.48 599.96 C 151.71 600.34 152.72 600.68 154.02 600.86 Z M 684.67 553.37 C 683.59 554.45 679.88 560.34 676.10 566.68 C 671.46 574.31 666.75 582.50 666.59 583.56 C 666.27 585.74 665.30 586.23 664.65 584.53 C 663.77 582.24 665.01 577.21 666.61 576.60 C 667.38 576.30 668.00 575.32 668.00 574.40 C 668.00 573.49 669.59 570.98 671.53 568.83 C 673.48 566.68 674.83 564.53 674.54 564.06 C 674.25 563.59 674.62 562.98 675.36 562.69 C 676.10 562.41 677.66 560.35 678.82 558.12 C 679.98 555.89 681.93 553.07 683.15 551.85 C 685.26 549.74 685.42 549.72 686.43 551.45 C 687.02 552.45 689.41 555.33 691.75 557.85 C 694.09 560.37 696.00 563.27 696.00 564.29 C 696.00 565.32 697.60 568.57 699.55 571.51 C 703.26 577.10 706.27 584.80 703.63 581.95 C 703.05 581.33 700.27 576.97 696.93 571.47 C 694.69 567.62 692.20 563.53 690.07 560.20 C 687.38 555.92 685.38 553.00 685.07 553.00 C 685.01 553.00 684.87 553.13 684.67 553.37 Z M 342.44 622.47 L 344.91 622.34 C 345.99 622.69 346.55 623.45 346.61 624.63 C 346.67 625.80 348.10 628.50 349.79 630.63 C 353.93 635.83 361.61 646.83 363.57 650.34 C 366.15 655.00 364.98 656.00 356.95 656.00 L 349.84 656.00 L 351.85 659.25 C 352.95 661.04 353.82 662.72 353.78 663.00 C 353.60 664.24 355.24 668.09 355.74 667.59 C 356.05 667.29 357.02 667.86 357.90 668.86 C 360.42 671.73 362.33 671.85 364.35 669.28 C 365.38 667.97 366.42 667.09 366.66 667.33 C 366.77 667.44 366.71 667.83 366.54 668.39 C 363.33 674.66 361.98 676.83 361.59 676.71 C 360.99 676.51 357.21 671.66 353.18 665.93 L 345.86 655.50 L 353.93 655.21 C 360.42 654.98 362.00 654.62 362.00 653.37 C 362.00 653.37 362.00 653.36 362.00 653.36 C 362.00 652.50 357.80 645.66 352.68 638.15 C 345.31 627.36 342.70 623.64 342.44 622.47 Z M 184.69 618.94 C 183.31 616.53 181.92 614.06 181.01 612.36 C 180.70 611.78 180.37 611.18 180.04 610.57 C 179.55 609.34 179.96 609.31 180.76 609.43 C 181.72 609.56 183.46 611.67 184.64 614.12 C 185.81 616.57 187.50 619.17 188.39 619.91 C 189.27 620.64 190.00 622.21 190.00 623.40 C 190.00 624.59 190.72 626.58 191.59 627.82 C 192.46 629.07 192.95 630.69 192.67 631.41 C 192.03 633.08 187.01 634.14 186.97 632.61 C 186.95 632.00 186.46 632.32 185.88 633.32 C 185.08 634.70 185.21 635.57 186.41 636.90 C 187.28 637.87 188.00 639.18 188.00 639.83 C 188.00 640.47 188.45 641.00 189.00 641.00 C 189.55 641.00 190.01 641.79 190.03 642.75 C 190.07 644.89 191.95 647.42 194.10 648.22 C 196.79 649.23 200.10 656.60 199.04 659.23 C 198.16 661.41 198.12 661.42 198.06 659.40 C 198.06 659.29 198.02 659.11 197.93 658.88 C 197.98 658.79 198.00 658.71 198.00 658.61 C 198.00 657.90 194.18 651.64 189.50 644.70 C 184.82 637.77 181.00 631.85 181.00 631.55 C 181.00 631.25 183.00 631.00 185.44 631.00 C 187.88 631.00 190.11 630.63 190.39 630.18 C 190.67 629.72 189.44 626.91 187.66 623.93 C 186.53 622.03 185.55 620.38 184.69 618.94 Z M 563.62 598.52 C 562.79 599.63 562.24 599.66 560.35 596.22 C 560.33 596.02 560.37 595.90 560.46 595.88 C 560.76 595.81 561.45 595.69 562.01 595.62 C 562.89 595.52 564.59 593.32 567.91 588.00 C 569.69 585.13 573.00 577.93 573.00 576.91 C 573.00 576.34 574.59 573.80 576.53 571.26 C 578.46 568.72 580.31 565.60 580.63 564.32 C 580.95 563.05 581.59 562.00 582.04 562.00 C 582.50 562.00 583.01 560.76 583.18 559.25 C 583.41 557.28 584.14 556.41 585.75 556.18 C 585.83 556.17 585.90 556.16 585.98 556.15 C 587.15 556.25 587.90 556.38 587.99 556.53 C 587.74 557.32 582.13 567.18 576.35 577.15 L 576.34 577.16 C 570.61 587.03 564.70 597.03 563.68 598.44 L 563.67 598.45 L 563.66 598.47 L 563.64 598.49 Z M 566.21 608.48 C 564.45 604.90 563.00 601.75 563.00 601.48 C 563.00 600.79 575.54 600.88 577.37 601.59 C 578.60 602.06 578.09 603.40 574.70 608.57 C 572.39 612.08 570.26 614.97 569.96 614.98 C 569.67 614.99 567.98 612.07 566.21 608.48 Z M 218.06 601.21 L 225.82 601.49 L 224.34 604.00 C 222.54 607.04 220.79 608.03 221.25 605.75 C 221.42 604.91 219.59 604.34 215.60 604.00 C 208.04 603.36 206.88 601.81 209.53 595.93 C 210.58 593.59 212.70 589.96 214.22 587.85 C 215.75 585.74 217.00 583.67 217.00 583.25 C 217.00 582.83 217.90 581.92 219.00 581.23 C 220.10 580.55 221.00 580.16 221.00 580.38 C 221.00 580.41 220.97 580.48 220.91 580.60 C 219.79 582.64 218.45 585.02 217.00 587.50 C 216.43 588.47 215.88 589.43 215.35 590.35 C 212.40 595.36 210.00 599.76 210.00 600.20 L 210.00 600.20 C 210.00 600.33 210.42 600.48 211.16 600.61 C 212.57 600.87 215.14 601.10 218.06 601.21 Z M 233.39 532.91 C 231.10 536.67 228.78 540.55 226.77 543.99 C 223.77 548.97 221.35 552.90 220.99 553.32 C 220.59 553.77 219.98 553.38 219.62 552.46 C 219.01 550.87 221.07 547.30 232.14 530.72 C 234.26 527.54 236.00 524.52 236.00 524.00 C 236.00 523.49 236.90 522.59 238.00 522.00 C 239.10 521.41 240.00 521.14 240.00 521.41 C 240.00 521.64 237.00 526.80 233.39 532.91 Z M 254.28 556.49 L 257.59 556.34 C 257.93 556.67 257.90 557.28 257.62 558.37 C 257.20 560.06 257.76 561.56 259.58 563.62 C 260.98 565.20 262.93 567.40 263.91 568.50 C 264.88 569.60 266.00 571.80 266.39 573.39 C 266.79 574.97 268.14 577.67 269.41 579.39 C 273.08 584.36 280.19 597.92 279.78 599.16 C 279.57 599.79 273.84 590.67 267.05 578.90 C 260.25 567.13 254.51 557.16 254.29 556.75 C 254.24 556.66 254.24 556.57 254.28 556.49 Z M 144.87 644.76 C 144.43 645.40 144.01 646.04 143.59 646.67 C 138.14 654.68 135.00 658.55 135.00 657.26 C 135.00 654.64 138.89 647.81 139.99 648.49 C 140.95 649.09 144.00 644.64 144.00 642.64 C 144.00 641.85 145.29 639.83 146.87 638.14 C 149.75 635.05 149.85 634.00 147.26 634.00 C 145.93 634.00 142.35 631.14 143.13 630.70 C 143.25 630.63 144.22 630.65 145.59 630.74 C 146.47 630.95 147.64 631.12 148.92 631.20 L 153.81 631.50 L 153.83 631.50 L 148.88 638.84 Z M 592.64 523.22 C 592.30 523.76 591.95 524.32 591.58 524.90 C 589.88 527.43 589.24 527.47 589.39 525.25 C 589.63 521.67 594.21 515.19 596.88 514.66 C 600.01 514.04 601.03 514.96 604.42 521.40 C 605.84 524.09 607.50 526.90 608.12 527.65 C 608.98 528.68 608.91 529.00 607.83 529.00 C 607.05 529.00 604.69 526.06 602.59 522.46 C 600.48 518.86 598.25 516.07 597.63 516.27 C 597.01 516.47 595.15 518.95 593.50 521.78 C 593.20 522.30 592.91 522.78 592.64 523.22 Z M 254.49 530.96 C 252.60 527.79 251.05 525.25 249.76 523.23 C 247.12 519.03 244.94 516.00 244.49 516.00 C 244.43 516.00 244.29 516.12 244.10 516.35 C 243.97 516.33 243.86 516.33 243.75 516.36 C 242.79 516.61 242.26 516.38 242.59 515.86 C 244.90 512.12 254.31 522.96 257.67 533.23 C 258.54 535.89 260.02 538.61 260.97 539.28 C 262.56 540.41 265.00 544.14 265.00 545.43 C 265.00 547.02 263.73 545.76 260.42 540.62 C 259.36 538.93 258.22 537.10 257.08 535.27 C 256.29 533.96 255.42 532.52 254.49 530.96 Z M 621.00 554.37 C 621.00 553.90 620.12 552.10 618.71 549.52 C 617.62 547.39 616.09 544.71 614.14 541.52 C 610.25 535.14 607.95 530.55 609.03 531.31 C 610.76 532.52 617.33 541.87 619.35 546.00 C 619.75 546.83 620.67 548.52 621.40 549.78 C 622.72 552.08 622.44 557.00 620.98 557.00 C 620.56 557.00 620.42 556.17 620.67 555.15 C 620.90 554.93 621.00 554.68 621.00 554.37 Z M 607.94 557.81 L 607.30 556.71 C 607.26 556.63 607.23 556.56 607.21 556.50 L 609.97 556.38 C 611.23 556.86 612.00 558.03 612.80 560.47 C 613.51 562.65 614.43 564.68 614.85 564.97 C 616.09 565.83 618.24 571.79 617.79 573.13 C 617.61 573.66 616.44 572.26 614.94 569.85 L 613.26 566.96 C 611.21 563.28 608.96 559.39 608.16 558.16 C 608.08 558.04 608.01 557.92 607.94 557.81 Z M 151.98 615.25 C 151.27 616.47 150.58 617.66 149.92 618.81 C 146.96 623.82 143.75 629.00 143.47 629.00 C 143.21 629.00 143.00 628.35 143.00 627.56 C 143.00 625.85 146.70 619.32 149.22 616.56 C 150.20 615.50 151.00 613.92 151.00 613.05 C 151.00 612.19 151.90 610.92 153.00 610.23 C 154.10 609.55 155.00 609.26 155.00 609.59 C 155.00 609.82 154.30 611.16 153.25 613.05 Z M 572.67 555.33 C 571.24 553.91 572.11 550.62 574.50 548.41 C 575.88 547.14 577.00 545.40 577.00 544.55 C 577.00 543.70 577.67 543.00 578.50 543.00 C 580.52 543.00 580.46 543.22 576.93 548.96 C 575.24 551.71 574.14 554.42 574.49 554.98 C 575.18 556.11 573.72 556.39 572.67 555.33 Z M 232.61 556.12 C 234.07 556.21 235.00 556.34 235.00 556.48 C 235.00 557.07 228.94 567.00 228.58 567.00 C 228.44 567.00 228.06 566.73 227.73 566.40 C 227.40 566.07 227.74 564.38 228.49 562.65 C 229.24 560.92 230.10 558.71 230.40 557.75 C 230.61 557.06 231.60 556.45 232.61 556.12 Z M 572.00 607.58 C 572.00 607.35 572.27 606.45 572.61 605.58 C 573.06 604.39 572.58 604.00 570.67 604.00 C 567.94 604.00 566.49 605.37 567.50 607.00 C 568.09 607.95 572.00 608.46 572.00 607.58 Z M 587.99 530.69 C 587.33 531.78 586.66 532.88 586.00 534.00 C 584.70 535.51 583.18 536.84 582.81 536.47 C 582.44 536.11 582.37 535.20 582.65 534.46 C 583.25 532.92 587.91 529.64 587.99 530.69 Z" stroke-linecap="round"></path>
</g>
		<g id="bef56c34-dd6b-44e2-90ea-8075cc90f861-child-4">
<path style="stroke: rgb(193,193,193); stroke-width: 0; stroke-dasharray: none; stroke-linecap: butt; stroke-dashoffset: 0; stroke-linejoin: miter; stroke-miterlimit: 4; fill: rgb(254,254,254); fill-rule: nonzero; opacity: 1;" transform="matrix(1.36289 0 0 1.36289 526.666674 526.666677) matrix(1 0 0 1 0 0)  translate(-430.5, -609)" d="M 0.00 0.00 L 861.00 0.00 L 861.00 1218.00 L 0.00 1218.00 Z M 460.50 1042.97 C 536.62 1035.84 607.78 1004.08 662.79 952.70 C 695.42 922.22 719.27 890.34 738.48 851.50 C 756.03 816.00 765.70 784.48 771.69 743.18 C 773.23 732.60 773.42 713.60 773.75 541.00 C 774.03 398.82 773.83 348.60 772.95 343.00 C 767.04 305.14 743.73 273.33 709.27 256.11 C 701.08 252.01 690.00 248.45 678.68 246.27 C 670.06 244.61 654.87 244.50 429.00 244.50 C 202.00 244.50 188.01 244.60 179.73 246.29 C 130.21 256.37 94.60 292.80 86.53 341.62 C 85.06 350.57 84.94 369.18 85.26 538.50 C 85.59 708.76 85.77 726.57 87.34 737.50 C 96.88 804.10 119.84 859.33 159.33 910.61 C 216.46 984.81 305.32 1034.37 396.50 1042.89 C 409.63 1044.12 447.75 1044.16 460.50 1042.97 Z" stroke-linecap="round"></path>
</g>
		<g id="bef56c34-dd6b-44e2-90ea-8075cc90f861-child-5">
<path style="stroke: rgb(193,193,193); stroke-width: 0; stroke-dasharray: none; stroke-linecap: butt; stroke-dashoffset: 0; stroke-linejoin: miter; stroke-miterlimit: 4; fill: rgb(130,95,64); fill-rule: nonzero; opacity: 1;" transform="matrix(1.36289 0 0 1.36289 526.666674 526.666677) matrix(1 0 0 1 50.5 26.816)  translate(-481, -635.816)" d="M 369.00 688.75 C 369.00 688.06 380.45 663.65 394.44 634.50 C 419.34 582.61 419.93 581.50 422.69 581.64 C 453.48 583.19 484.40 583.63 507.60 582.87 C 522.83 582.37 535.41 582.08 535.55 582.23 C 535.79 582.49 510.81 635.04 492.75 672.25 L 484.14 690.00 L 426.57 690.00 C 381.18 690.00 369.00 689.74 369.00 688.75 Z M 496.00 689.59 C 496.00 689.12 529.39 619.18 535.07 607.75 C 536.92 604.04 538.79 601.00 539.23 601.00 C 539.66 601.00 539.90 620.91 539.76 645.25 L 539.50 689.50 L 517.75 689.77 C 505.79 689.92 496.00 689.84 496.00 689.59 Z M 550.00 644.80 C 550.00 619.94 550.38 600.03 550.85 600.55 C 552.06 601.90 593.00 687.84 593.00 689.02 C 593.00 689.63 584.87 690.00 571.50 690.00 L 550.00 690.00 Z" stroke-linecap="round"></path>
</g>
		<g id="bef56c34-dd6b-44e2-90ea-8075cc90f861-child-6">
<path style="stroke: rgb(193,193,193); stroke-width: 0; stroke-dasharray: none; stroke-linecap: butt; stroke-dashoffset: 0; stroke-linejoin: miter; stroke-miterlimit: 4; fill: rgb(223,131,51); fill-rule: nonzero; opacity: 1;" transform="matrix(1.36289 0 0 1.36289 526.666674 526.666677) matrix(1 0 0 1 -0.954987 35.496598)  translate(-429.545014, -644.496599)" d="M 401.00 1033.28 C 398.52 1033.08 390.64 1032.07 383.49 1031.04 C 237.40 1009.98 120.62 892.43 98.54 744.21 C 95.11 721.17 94.89 706.54 95.20 524.00 L 95.50 343.50 L 98.25 333.50 C 109.14 293.91 140.13 264.58 179.50 256.60 C 186.77 255.12 209.81 255.00 433.00 255.24 L 678.50 255.50 L 687.40 258.29 C 692.30 259.82 699.60 262.60 703.64 264.47 C 733.28 278.16 755.32 306.22 761.93 338.66 C 763.98 348.71 764.00 350.69 763.99 534.16 C 763.98 689.67 763.74 721.71 762.52 733.26 C 755.62 798.29 731.36 857.64 691.11 908.00 C 681.74 919.72 658.57 943.60 646.50 953.96 C 595.56 997.72 532.32 1025.08 465.00 1032.49 C 452.64 1033.85 413.88 1034.33 401.00 1033.28 Z M 453.70 1015.95 C 536.25 1009.18 610.04 972.76 665.29 911.51 C 712.86 858.77 740.53 793.78 745.97 722.00 C 747.30 704.54 747.32 358.44 746.00 348.27 C 741.45 313.26 715.52 283.97 680.91 274.74 L 672.50 272.50 L 186.50 272.50 L 178.25 274.70 C 160.56 279.42 141.82 291.70 131.25 305.50 C 128.30 309.35 123.91 316.55 121.50 321.50 C 113.01 338.95 113.80 322.48 112.68 506.00 C 111.59 682.82 112.06 716.35 115.98 741.96 C 128.97 826.96 174.16 902.95 241.68 953.34 C 304.02 999.86 379.19 1022.06 453.70 1015.95 Z M 254.04 472.42 C 247.19 466.69 241.10 462.00 240.51 462.00 C 239.92 462.00 231.37 464.70 221.50 468.00 C 211.63 471.30 203.20 474.00 202.76 474.00 C 201.16 474.00 192.04 458.73 189.15 451.21 C 185.38 441.42 184.00 433.85 184.01 423.07 C 184.02 411.44 185.50 403.17 189.28 393.60 C 199.00 369.00 219.09 351.43 244.98 344.89 C 252.19 343.06 255.39 342.83 267.44 343.22 C 279.34 343.62 282.73 344.11 289.50 346.41 C 315.39 355.22 333.60 374.14 341.60 400.54 C 343.96 408.33 344.31 411.19 344.30 422.50 C 344.28 438.32 341.96 448.66 337.96 450.77 C 332.69 453.55 267.93 483.00 267.24 482.92 C 266.83 482.88 260.89 478.16 254.04 472.42 Z" stroke-linecap="round"></path>
</g>
		<g id="bef56c34-dd6b-44e2-90ea-8075cc90f861-child-7">
<path style="stroke: rgb(193,193,193); stroke-width: 0; stroke-dasharray: none; stroke-linecap: butt; stroke-dashoffset: 0; stroke-linejoin: miter; stroke-miterlimit: 4; fill: rgb(238,209,130); fill-rule: nonzero; opacity: 1;" transform="matrix(1.36289 0 0 1.36289 526.666674 526.666677) matrix(1 0 0 1 -0.745137 13.764881)  translate(-429.754863, -622.764881)" d="M 483.57 961.43 C 481.68 959.53 481.56 957.61 483.25 956.21 C 484.63 955.07 484.78 950.52 483.53 947.69 C 482.40 945.11 484.42 941.33 487.17 940.88 C 490.85 940.27 498.69 941.38 497.25 942.31 C 496.56 942.75 496.00 944.15 496.00 945.40 C 496.00 947.95 493.54 950.56 490.50 951.24 C 488.36 951.72 488.55 951.83 494.50 953.63 C 498.23 954.76 498.93 958.07 496.06 960.94 C 493.50 963.50 485.94 963.80 483.57 961.43 Z M 491.43 960.02 C 495.27 958.57 494.53 957.00 490.00 957.00 C 485.87 957.00 485.13 957.73 487.20 959.80 C 488.64 961.24 488.29 961.22 491.43 960.02 Z M 491.82 945.24 C 492.06 943.54 491.64 943.00 490.07 943.00 C 488.51 943.00 488.00 943.64 488.00 945.57 C 488.00 948.86 491.35 948.56 491.82 945.24 Z M 332.69 956.35 C 332.31 955.98 332.00 951.24 332.00 945.83 L 332.00 936.00 L 337.44 936.00 C 341.93 936.00 343.16 936.39 344.44 938.22 C 345.30 939.44 346.00 941.27 346.00 942.27 C 346.00 944.91 341.50 949.00 338.61 949.00 C 336.47 949.00 336.08 949.51 335.81 952.67 C 335.51 956.19 334.14 957.81 332.69 956.35 Z M 340.82 942.25 C 341.08 940.42 340.66 940.00 338.57 940.00 C 336.48 940.00 336.00 940.48 336.00 942.57 C 336.00 944.66 336.42 945.08 338.25 944.82 C 339.70 944.61 340.61 943.70 340.82 942.25 Z M 351.09 955.09 C 349.43 953.43 349.00 951.76 349.00 947.00 C 349.00 941.30 349.12 941.00 351.45 941.00 C 353.73 941.00 353.92 941.40 354.20 946.75 C 354.46 951.73 354.77 952.50 356.50 952.50 C 358.23 952.50 358.54 951.73 358.80 946.75 C 359.08 941.40 359.27 941.00 361.55 941.00 C 363.93 941.00 364.00 941.21 364.00 948.50 L 364.00 956.00 L 360.75 955.88 C 358.96 955.82 356.53 956.08 355.34 956.47 C 353.82 956.98 352.57 956.57 351.09 955.09 Z M 369.25 956.33 C 368.41 956.00 368.00 953.44 368.00 948.53 L 368.00 941.22 L 374.39 941.12 C 382.40 941.00 383.19 941.86 382.80 950.16 C 382.57 955.00 382.14 956.50 381.00 956.50 C 379.89 956.50 379.37 954.94 379.00 950.50 C 378.53 944.90 378.33 944.50 376.00 944.50 C 373.67 944.50 373.47 944.91 373.00 950.42 C 372.51 956.21 371.79 957.35 369.25 956.33 Z M 390.32 955.99 C 386.05 954.27 384.58 947.47 387.56 943.22 C 388.81 941.44 390.08 941.00 394.03 941.00 C 397.89 941.00 398.82 941.31 398.38 942.44 C 398.08 943.24 396.41 944.02 394.66 944.19 C 392.03 944.45 391.45 944.97 391.18 947.31 C 390.78 950.80 392.50 953.00 395.62 953.00 C 398.24 953.00 398.64 953.96 396.80 955.80 C 395.42 957.18 393.42 957.24 390.32 955.99 Z M 403.25 955.48 C 399.04 952.50 400.80 948.04 406.56 947.11 C 411.66 946.28 412.17 944.22 407.39 943.81 C 405.34 943.64 403.49 943.00 403.29 942.38 C 402.79 940.87 408.05 939.92 411.62 940.87 C 414.41 941.61 414.51 941.85 414.79 948.78 L 415.09 955.93 L 412.29 955.84 C 410.76 955.80 408.60 956.06 407.50 956.42 C 406.32 956.81 404.58 956.43 403.25 955.48 Z M 410.02 951.48 C 410.72 950.64 411.03 949.70 410.72 949.38 C 409.71 948.38 406.00 950.09 406.00 951.57 C 406.00 953.46 408.42 953.40 410.02 951.48 Z M 420.60 956.26 C 419.93 955.60 419.76 935.00 420.42 935.00 C 420.65 935.00 421.55 934.73 422.42 934.39 C 423.76 933.88 424.00 934.75 424.00 940.08 L 424.00 946.37 L 426.80 943.69 C 428.35 942.21 430.68 941.00 431.99 941.00 L 434.37 941.00 L 431.56 943.94 L 428.74 946.88 L 431.87 951.14 C 434.95 955.33 434.89 957.66 431.73 956.45 C 430.84 956.11 429.41 954.74 428.54 953.42 C 426.48 950.28 424.00 950.27 424.00 953.39 C 424.00 955.69 421.84 957.51 420.60 956.26 Z M 448.25 956.39 C 447.37 956.00 447.00 952.89 447.00 945.92 L 447.00 936.00 L 453.30 936.00 C 456.87 936.00 460.12 936.52 460.80 937.20 C 462.33 938.73 462.35 942.25 460.82 943.78 C 459.92 944.68 460.07 945.42 461.44 946.94 C 463.62 949.34 462.90 953.45 460.03 954.98 C 457.67 956.25 449.99 957.16 448.25 956.39 Z M 456.80 951.80 C 458.93 949.67 458.15 948.00 455.00 948.00 C 452.47 948.00 452.00 948.39 452.00 950.50 C 452.00 953.24 454.65 953.95 456.80 951.80 Z M 456.81 941.75 C 457.06 940.45 456.48 940.00 454.57 940.00 C 452.64 940.00 452.00 940.51 452.00 942.07 C 452.00 943.64 452.54 944.06 454.24 943.82 C 455.47 943.64 456.63 942.71 456.81 941.75 Z M 467.80 953.95 C 465.18 951.33 464.84 950.40 465.34 947.27 C 466.14 942.36 468.05 940.73 473.00 940.73 C 478.36 940.73 480.45 942.80 480.45 948.12 C 480.45 951.36 479.87 952.71 477.67 954.61 C 473.97 957.79 471.47 957.62 467.80 953.95 Z M 474.95 951.56 C 475.61 950.77 476.00 948.86 475.82 947.31 C 475.57 945.07 475.00 944.50 473.01 944.50 C 470.28 944.50 469.42 946.54 470.43 950.58 C 471.11 953.29 473.15 953.73 474.95 951.56 Z M 502.63 954.93 C 500.53 953.27 500.00 952.01 500.02 948.68 C 500.03 943.70 500.71 942.44 504.07 941.16 C 512.79 937.85 518.73 947.43 512.08 954.08 C 508.62 957.53 506.22 957.75 502.63 954.93 Z M 509.50 948.49 C 509.50 944.90 509.25 944.50 507.00 944.50 C 505.00 944.50 504.44 945.07 504.18 947.31 C 503.80 950.57 505.61 953.22 507.91 952.78 C 509.05 952.56 509.50 951.34 509.50 948.49 Z M 519.69 956.35 C 519.31 955.98 519.00 952.38 519.00 948.37 L 519.00 941.08 L 521.75 941.14 C 523.26 941.17 525.40 941.03 526.50 940.85 C 529.62 940.31 529.15 944.26 526.00 944.99 C 523.80 945.51 523.44 946.23 523.00 950.96 C 522.53 955.98 521.31 957.98 519.69 956.35 Z M 436.71 950.38 C 434.77 948.44 436.20 947.00 440.07 947.00 C 443.41 947.00 444.09 947.32 443.82 948.75 C 443.47 950.55 438.11 951.78 436.71 950.38 Z M 517.15 900.49 C 511.43 898.89 501.00 893.15 501.00 891.60 C 501.00 891.09 502.67 887.82 504.71 884.34 C 508.29 878.21 510.14 876.80 511.56 879.10 C 512.75 881.02 524.38 886.00 527.68 886.00 C 534.74 886.00 538.98 882.03 537.63 876.67 C 537.15 874.76 534.72 873.01 527.07 869.08 C 515.09 862.93 511.81 860.30 509.08 854.66 C 504.82 845.87 507.57 835.49 515.79 829.29 C 521.36 825.09 526.94 823.64 535.00 824.31 C 542.15 824.90 552.85 828.45 553.64 830.49 C 553.91 831.21 552.73 834.58 551.01 837.98 C 548.53 842.90 547.54 844.02 546.19 843.45 C 534.02 838.27 524.00 839.14 524.00 845.38 C 524.00 848.58 527.15 851.11 537.59 856.32 C 548.58 861.81 552.70 865.13 555.12 870.46 C 560.07 881.36 554.66 893.86 542.74 899.04 C 536.07 901.94 524.65 902.59 517.15 900.49 Z M 304.00 863.04 L 304.00 825.00 L 312.50 825.00 L 321.00 825.00 L 321.00 840.00 L 321.00 855.00 L 332.97 855.00 L 344.95 855.00 L 345.22 840.25 L 345.50 825.50 L 353.76 825.21 L 362.02 824.92 L 361.76 862.71 L 361.50 900.50 L 353.50 900.50 L 345.50 900.50 L 345.22 885.75 L 344.95 871.00 L 333.00 871.00 L 321.05 871.00 L 320.78 885.75 L 320.50 900.50 L 312.25 900.79 L 304.00 901.08 L 304.00 863.04 Z M 373.71 900.37 C 373.32 899.98 373.00 882.87 373.00 862.33 L 373.00 825.00 L 381.51 825.00 L 390.02 825.00 L 389.76 862.75 L 389.50 900.50 L 381.96 900.79 C 377.81 900.95 374.09 900.76 373.71 900.37 Z M 401.46 899.77 C 401.19 899.06 401.09 882.07 401.24 862.00 L 401.50 825.50 L 410.00 825.50 L 418.50 825.50 L 419.00 855.50 L 419.50 885.50 L 431.79 885.78 L 444.09 886.06 L 443.79 893.28 L 443.50 900.50 L 422.73 900.77 C 406.62 900.98 401.84 900.75 401.46 899.77 Z M 453.00 863.54 L 453.00 826.04 L 455.29 825.46 C 456.55 825.15 460.26 825.03 463.54 825.19 L 469.50 825.50 L 470.00 855.50 L 470.50 885.50 L 483.29 885.78 L 496.09 886.06 L 495.79 893.28 L 495.50 900.50 L 474.25 900.77 L 453.00 901.04 L 453.00 863.54 Z M 195.00 771.54 L 195.00 734.00 L 203.47 734.00 L 211.95 734.00 L 212.22 748.51 L 212.50 763.01 L 224.79 748.51 L 237.08 734.00 L 247.04 734.00 C 252.52 734.00 257.00 734.21 257.00 734.48 C 257.00 734.74 250.66 742.41 242.91 751.53 C 235.17 760.65 229.04 768.65 229.29 769.30 C 229.55 769.96 237.21 778.89 246.32 789.14 C 255.43 799.40 262.61 808.06 262.27 808.39 C 261.94 808.73 256.82 809.00 250.89 809.00 L 240.11 809.00 L 231.67 799.25 C 227.03 793.89 221.05 786.94 218.37 783.82 C 215.69 780.69 213.17 778.10 212.78 778.07 C 212.38 778.03 211.93 784.86 211.78 793.25 L 211.50 808.50 L 203.25 808.79 L 195.00 809.08 L 195.00 771.54 Z M 266.69 808.35 C 266.31 807.98 266.00 791.09 266.00 770.83 L 266.00 734.00 L 287.54 734.00 L 309.09 734.00 L 308.79 741.25 L 308.50 748.50 L 296.25 748.78 L 284.00 749.06 L 284.00 756.03 C 284.00 763.77 283.40 763.24 292.50 763.52 C 294.70 763.59 299.11 763.72 302.29 763.82 L 308.09 764.00 L 307.79 771.25 L 307.50 778.50 L 295.75 778.78 L 284.00 779.06 L 284.00 786.53 L 284.00 794.00 L 296.54 794.00 L 309.09 794.00 L 308.79 801.25 L 308.50 808.50 L 287.94 808.77 C 276.63 808.92 267.06 808.73 266.69 808.35 Z M 315.70 808.29 C 315.44 807.86 316.74 791.30 318.57 771.50 C 320.41 751.70 321.94 735.16 321.96 734.75 C 321.98 734.34 326.20 734.00 331.33 734.00 L 340.65 734.00 L 347.47 751.75 C 351.23 761.51 354.78 770.74 355.37 772.25 C 355.96 773.76 356.68 774.99 356.97 774.98 C 357.26 774.97 359.17 770.58 361.20 765.23 C 363.24 759.88 366.77 750.66 369.06 744.75 L 373.21 734.00 L 382.60 734.00 C 387.77 734.00 392.00 734.11 392.00 734.25 C 392.00 734.39 393.14 747.10 394.52 762.50 C 395.90 777.90 397.32 794.68 397.67 799.79 L 398.31 809.09 L 389.90 808.79 L 381.50 808.50 L 379.81 788.61 C 378.88 777.67 377.73 768.33 377.25 767.85 C 376.77 767.37 374.03 773.70 371.03 782.24 C 368.09 790.63 364.81 799.88 363.75 802.80 L 361.82 808.10 L 356.69 807.80 L 351.57 807.50 L 344.53 787.32 C 337.81 768.02 336.08 763.95 335.94 767.08 C 335.90 767.86 335.11 777.50 334.19 788.50 L 332.50 808.50 L 324.33 808.79 C 319.84 808.95 315.96 808.72 315.70 808.29 Z M 405.67 808.33 C 405.30 807.97 405.00 791.09 405.00 770.83 L 405.00 734.00 L 421.25 734.01 C 436.32 734.02 437.88 734.19 442.68 736.43 C 446.08 738.02 448.41 739.90 449.45 741.91 C 453.28 749.30 452.16 759.99 447.03 765.13 C 444.10 768.06 444.38 769.07 448.50 770.41 C 451.54 771.39 454.56 774.25 456.48 777.95 C 458.86 782.57 458.76 791.91 456.26 796.75 C 453.62 801.86 447.16 806.59 440.99 807.91 C 435.50 809.09 406.77 809.43 405.67 808.33 Z M 438.13 792.08 C 439.23 790.73 440.00 788.20 440.00 785.96 C 440.00 780.44 436.59 778.00 428.87 778.00 L 423.00 778.00 L 423.00 786.62 L 423.00 795.23 L 429.63 794.81 C 435.05 794.47 436.61 793.97 438.13 792.08 Z M 432.64 759.87 C 434.98 757.67 435.81 752.76 434.23 750.40 C 432.99 748.54 429.29 747.00 426.07 747.00 L 423.00 747.00 L 423.00 755.13 L 423.00 763.26 L 426.64 762.67 C 428.65 762.35 431.35 761.08 432.64 759.87 Z M 458.66 808.26 C 458.38 807.81 464.78 791.03 472.87 770.97 L 487.59 734.50 L 496.07 734.21 L 504.54 733.93 L 519.26 770.57 C 527.36 790.73 533.74 807.62 533.43 808.11 C 533.13 808.60 529.12 809.00 524.51 809.00 L 516.14 809.00 L 514.20 803.75 C 513.13 800.86 511.94 797.48 511.55 796.22 C 510.86 793.97 510.68 793.95 496.22 794.22 L 481.59 794.50 L 478.93 801.50 L 476.28 808.50 L 467.72 808.79 C 463.01 808.95 458.94 808.71 458.66 808.26 Z M 503.53 777.95 C 504.18 776.90 498.61 761.70 496.65 759.16 C 495.87 758.16 494.67 760.26 491.83 767.55 C 489.75 772.90 488.29 777.66 488.58 778.14 C 489.35 779.37 502.75 779.21 503.53 777.95 Z M 537.68 808.35 C 537.28 807.95 536.99 791.06 537.02 770.81 L 537.09 734.00 L 554.93 734.00 C 572.50 734.00 572.85 734.04 578.10 736.78 C 582.44 739.05 583.97 740.59 586.31 745.03 C 588.81 749.78 589.13 751.30 588.73 756.53 C 588.02 765.76 583.87 772.53 576.66 776.20 L 573.83 777.65 L 584.45 790.32 C 590.29 797.30 595.45 803.00 595.92 803.00 C 596.38 803.00 603.00 787.46 610.63 768.47 L 624.50 733.93 L 632.97 734.22 L 641.44 734.50 L 656.16 771.00 C 664.25 791.08 670.52 807.86 670.09 808.29 C 669.67 808.73 665.58 808.95 661.01 808.79 L 652.70 808.50 L 650.11 801.25 L 647.52 794.00 L 632.89 794.00 L 618.27 794.00 L 616.01 800.25 C 614.77 803.69 613.31 807.06 612.76 807.75 C 612.03 808.66 607.19 809.00 594.93 809.00 L 578.10 809.00 L 567.30 795.03 C 561.36 787.35 556.18 781.05 555.78 781.03 C 555.38 781.01 554.93 787.19 554.78 794.75 L 554.50 808.50 L 546.45 808.79 C 542.03 808.95 538.08 808.75 537.68 808.35 Z M 640.41 778.15 C 641.02 777.16 633.84 758.00 632.85 758.00 C 632.17 758.00 626.51 772.11 625.38 776.60 C 624.79 778.97 624.87 779.00 632.33 779.00 C 636.48 779.00 640.12 778.62 640.41 778.15 Z M 567.64 763.87 C 571.97 759.80 571.62 751.47 567.02 749.01 C 565.88 748.40 562.71 747.63 559.97 747.31 L 555.00 746.72 L 555.00 757.00 L 555.00 767.28 L 560.15 766.67 C 563.44 766.28 566.15 765.27 567.64 763.87 Z M 123.01 425.36 C 123.01 339.64 122.90 341.11 130.92 325.16 C 141.12 304.87 158.48 290.73 181.06 284.33 C 187.22 282.58 198.15 282.50 429.50 282.50 C 700.97 282.50 675.63 281.79 692.50 289.88 C 713.55 299.97 728.13 317.82 734.26 341.00 C 736.41 349.18 736.50 351.13 736.50 392.48 L 736.50 435.46 L 695.73 458.74 L 654.97 482.01 L 591.79 423.51 C 549.21 384.07 527.92 365.00 526.48 365.00 C 525.30 365.00 514.03 369.77 501.42 375.60 C 480.35 385.34 377.27 432.82 360.14 440.68 L 352.78 444.05 L 353.36 440.28 C 358.11 409.42 350.06 381.88 330.10 360.72 C 312.66 342.23 290.96 333.02 264.82 333.01 C 241.27 332.99 224.27 338.88 206.10 353.33 C 193.62 363.24 181.09 382.79 176.49 399.50 C 173.94 408.79 173.38 429.84 175.43 439.93 C 177.95 452.41 185.12 468.91 190.78 475.27 C 191.73 476.34 191.98 477.39 191.43 477.90 C 190.92 478.37 175.88 483.60 158.00 489.52 C 140.12 495.45 124.94 500.50 124.25 500.75 C 123.26 501.12 123.00 485.62 123.01 425.36 Z" stroke-linecap="round"></path>
</g>
</g>
</g>

  </svg>